<svg width="186" height="40" viewBox="0 0 186 40" fill="none" xmlns="http://www.w3.org/2000/svg">
<g clip-path="url(#clip0_1_120)">
<path d="M48.1566 28.163H49.7885V29.7949H48.1566V28.163ZM49.7885 28.163H51.4205V29.7949H49.7885V28.163ZM51.4205 28.163H53.0524V29.7949H51.4205V28.163ZM51.4205 26.531H53.0524V28.163H51.4205V26.531ZM51.4205 24.8991H53.0524V26.531H51.4205V24.8991ZM51.4205 23.2672H53.0524V24.8991H51.4205V23.2672ZM51.4205 21.6352H53.0524V23.2672H51.4205V21.6352ZM51.4205 20.0033H53.0524V21.6352H51.4205V20.0033ZM51.4205 18.3714H53.0524V20.0033H51.4205V18.3714ZM51.4205 16.7394H53.0524V18.3714H51.4205V16.7394ZM51.4205 15.1075H53.0524V16.7394H51.4205V15.1075ZM49.7885 15.1075H51.4205V16.7394H49.7885V15.1075ZM49.7885 13.4755H51.4205V15.1075H49.7885V13.4755ZM48.1566 15.1075H49.7885V16.7394H48.1566V15.1075ZM48.1566 16.7394H49.7885V18.3714H48.1566V16.7394ZM48.1566 18.3714H49.7885V20.0033H48.1566V18.3714ZM48.1566 20.0033H49.7885V21.6352H48.1566V20.0033ZM48.1566 21.6352H49.7885V23.2672H48.1566V21.6352ZM48.1566 23.2672H49.7885V24.8991H48.1566V23.2672ZM48.1566 24.8991H49.7885V26.531H48.1566V24.8991ZM48.1566 26.531H49.7885V28.163H48.1566V26.531ZM49.7885 26.531H51.4205V28.163H49.7885V26.531ZM49.7885 24.8991H51.4205V26.531H49.7885V24.8991ZM49.7885 23.2672H51.4205V24.8991H49.7885V23.2672ZM48.1566 13.4755H49.7885V15.1075H48.1566V13.4755ZM51.4205 13.4755H53.0524V15.1075H51.4205V13.4755ZM49.7885 16.7394H51.4205V18.3714H49.7885V16.7394ZM49.7885 18.3714H51.4205V20.0033H49.7885V18.3714ZM49.7885 20.0033H51.4205V21.6352H49.7885V20.0033ZM49.7885 21.6352H51.4205V23.2672H49.7885V21.6352ZM48.1566 5.31585H49.7885V6.94779H48.1566V5.31585ZM49.7885 5.31585H51.4205V6.94779H49.7885V5.31585ZM51.4205 5.31585H53.0524V6.94779H51.4205V5.31585ZM51.4205 6.94779H53.0524V8.57973H51.4205V6.94779ZM51.4205 8.57973H53.0524V10.2117H51.4205V8.57973ZM51.4205 10.2117H53.0524V11.8436H51.4205V10.2117ZM51.4205 11.8436H53.0524V13.4755H51.4205V11.8436ZM49.7885 11.8436H51.4205V13.4755H49.7885V11.8436ZM49.7885 10.2117H51.4205V11.8436H49.7885V10.2117ZM49.7885 8.57973H51.4205V10.2117H49.7885V8.57973ZM49.7885 6.94779H51.4205V8.57973H49.7885V6.94779ZM48.1566 6.94779H49.7885V8.57973H48.1566V6.94779ZM48.1566 8.57973H49.7885V10.2117H48.1566V8.57973ZM48.1566 10.2117H49.7885V11.8436H48.1566V10.2117ZM48.1566 11.8436H49.7885V13.4755H48.1566V11.8436ZM72.6516 5.31585V6.94779H71.0197V5.31585H72.6516ZM72.6516 6.94779V8.57973H71.0197V6.94779H72.6516ZM72.6516 8.57973V10.2117H71.0197V8.57973H72.6516ZM72.6516 10.2117V11.8436H71.0197V10.2117H72.6516ZM72.6516 11.8436V13.4755H71.0197V11.8436H72.6516ZM72.6516 13.4755V15.1075H71.0197V13.4755H72.6516ZM72.6516 26.531V28.163H71.0197V26.531H72.6516ZM72.6516 28.163V29.7949H71.0197V28.163H72.6516ZM71.0197 28.163V29.7949H69.3877V28.163H71.0197ZM69.3877 5.31585V6.94779H67.7558V5.31585H69.3877ZM71.0197 5.31585V6.94779H69.3877V5.31585H71.0197ZM71.0197 6.94779V8.57973H69.3877V6.94779H71.0197ZM69.3877 6.94779V8.57973H67.7558V6.94779H69.3877ZM69.3877 8.57973V10.2117H67.7558V8.57973H69.3877ZM69.3877 10.2117V11.8436H67.7558V10.2117H69.3877ZM71.0197 11.8436V13.4755H69.3877V11.8436H71.0197ZM71.0197 10.2117V11.8436H69.3877V10.2117H71.0197ZM71.0197 8.57973V10.2117H69.3877V8.57973H71.0197ZM66.1239 11.8436V13.4755H64.4919V11.8436H66.1239ZM64.4919 11.8436V13.4755H62.86V11.8436H64.4919ZM62.86 11.8436V13.4755H61.2281V11.8436H62.86ZM61.2281 11.8436V13.4755H59.5961V11.8436H61.2281ZM59.5961 13.4755V15.1075H57.9642V13.4755H59.5961ZM61.2281 13.4755V15.1075H59.5961V13.4755H61.2281ZM62.86 13.4755V15.1075H61.2281V13.4755H62.86ZM64.4919 13.4755V15.1075H62.86V13.4755H64.4919ZM66.1239 13.4755V15.1075H64.4919V13.4755H66.1239ZM67.7558 13.4755V15.1075H66.1239V13.4755H67.7558ZM71.0197 13.4755V15.1075H69.3877V13.4755H71.0197ZM69.3877 23.2672V24.8991H67.7558V23.2672H69.3877ZM67.7558 26.531V28.163H66.1239V26.531H67.7558ZM67.7558 24.8991V26.531H66.1239V24.8991H67.7558ZM66.1239 28.163V29.7949H64.4919V28.163H66.1239ZM64.4919 28.163V29.7949H62.86V28.163H64.4919ZM62.86 28.163V29.7949H61.2281V28.163H62.86ZM61.2281 28.163V29.7949H59.5961V28.163H61.2281ZM62.86 26.531V28.163H61.2281V26.531H62.86ZM64.4919 26.531V28.163H62.86V26.531H64.4919ZM66.1239 26.531V28.163H64.4919V26.531H66.1239ZM61.2281 26.531V28.163H59.5961V26.531H61.2281ZM59.5961 26.531V28.163H57.9642V26.531H59.5961ZM61.2281 24.8991V26.531H59.5961V24.8991H61.2281ZM62.86 24.8991V26.531H61.2281V24.8991H62.86ZM59.5961 24.8991V26.531H57.9642V24.8991H59.5961ZM57.9642 24.8991V26.531H56.3322V24.8991H57.9642ZM57.9642 23.2672V24.8991H56.3322V23.2672H57.9642ZM59.5961 21.6352V23.2672H57.9642V21.6352H59.5961ZM59.5961 23.2672V24.8991H57.9642V23.2672H59.5961ZM61.2281 23.2672V24.8991H59.5961V23.2672H61.2281ZM57.9642 21.6352V23.2672H56.3322V21.6352H57.9642ZM57.9642 20.0033V21.6352H56.3322V20.0033H57.9642ZM59.5961 20.0033V21.6352H57.9642V20.0033H59.5961ZM59.5961 18.3714V20.0033H57.9642V18.3714H59.5961ZM59.5961 16.7394V18.3714H57.9642V16.7394H59.5961ZM57.9642 16.7394V18.3714H56.3322V16.7394H57.9642ZM57.9642 15.1075V16.7394H56.3322V15.1075H57.9642ZM57.9642 18.3714V20.0033H56.3322V18.3714H57.9642ZM61.2281 20.0033V21.6352H59.5961V20.0033H61.2281ZM61.2281 21.6352V23.2672H59.5961V21.6352H61.2281ZM61.2281 18.3714V20.0033H59.5961V18.3714H61.2281ZM61.2281 16.7394V18.3714H59.5961V16.7394H61.2281ZM61.2281 15.1075V16.7394H59.5961V15.1075H61.2281ZM62.86 15.1075V16.7394H61.2281V15.1075H62.86ZM59.5961 15.1075V16.7394H57.9642V15.1075H59.5961ZM67.7558 15.1075V16.7394H66.1239V15.1075H67.7558ZM66.1239 15.1075V16.7394H64.4919V15.1075H66.1239ZM64.4919 15.1075V16.7394H62.86V15.1075H64.4919ZM66.1239 24.8991V26.531H64.4919V24.8991H66.1239ZM64.4919 24.8991V26.531H62.86V24.8991H64.4919ZM69.3877 28.163V29.7949H67.7558V28.163H69.3877ZM69.3877 26.531V28.163H67.7558V26.531H69.3877ZM69.3877 24.8991V26.531H67.7558V24.8991H69.3877ZM71.0197 24.8991V26.531H69.3877V24.8991H71.0197ZM71.0197 26.531V28.163H69.3877V26.531H71.0197ZM71.0197 23.2672V24.8991H69.3877V23.2672H71.0197ZM69.3877 21.6352V23.2672H67.7558V21.6352H69.3877ZM69.3877 20.0033V21.6352H67.7558V20.0033H69.3877ZM69.3877 18.3714V20.0033H67.7558V18.3714H69.3877ZM69.3877 16.7394V18.3714H67.7558V16.7394H69.3877ZM69.3877 15.1075V16.7394H67.7558V15.1075H69.3877ZM69.3877 13.4755V15.1075H67.7558V13.4755H69.3877ZM69.3877 11.8436V13.4755H67.7558V11.8436H69.3877ZM71.0197 15.1075V16.7394H69.3877V15.1075H71.0197ZM71.0197 16.7394V18.3714H69.3877V16.7394H71.0197ZM71.0197 18.3714V20.0033H69.3877V18.3714H71.0197ZM71.0197 20.0033V21.6352H69.3877V20.0033H71.0197ZM71.0197 21.6352V23.2672H69.3877V21.6352H71.0197ZM72.6516 23.2672V24.8991H71.0197V23.2672H72.6516ZM72.6516 24.8991V26.531H71.0197V24.8991H72.6516ZM72.6516 21.6352V23.2672H71.0197V21.6352H72.6516ZM72.6516 20.0033V21.6352H71.0197V20.0033H72.6516ZM72.6516 18.3714V20.0033H71.0197V18.3714H72.6516ZM72.6516 16.7394V18.3714H71.0197V16.7394H72.6516ZM72.6516 15.1075V16.7394H71.0197V15.1075H72.6516ZM66.1239 23.2672H67.7558V24.8991H66.1239V23.2672ZM66.1239 11.8436H67.7558V13.4755H66.1239V11.8436ZM79.1746 11.8436H80.8065V13.4755H79.1746V11.8436ZM80.8065 11.8436H82.4385V13.4755H80.8065V11.8436ZM82.4385 11.8436H84.0704V13.4755H82.4385V11.8436ZM84.0704 11.8436H85.7023V13.4755H84.0704V11.8436ZM85.7023 11.8436H87.3343V13.4755H85.7023V11.8436ZM87.3343 11.8436H88.9662V13.4755H87.3343V11.8436ZM88.9662 13.4755H90.5982V15.1075H88.9662V13.4755ZM87.3343 13.4755H88.9662V15.1075H87.3343V13.4755ZM85.7023 13.4755H87.3343V15.1075H85.7023V13.4755ZM84.0704 13.4755H85.7023V15.1075H84.0704V13.4755ZM82.4385 13.4755H84.0704V15.1075H82.4385V13.4755ZM80.8065 13.4755H82.4385V15.1075H80.8065V13.4755ZM79.1746 13.4755H80.8065V15.1075H79.1746V13.4755ZM77.5427 13.4755H79.1746V15.1075H77.5427V13.4755ZM77.5427 15.1075H79.1746V16.7394H77.5427V15.1075ZM79.1746 15.1075H80.8065V16.7394H79.1746V15.1075ZM75.9107 15.1075H77.5427V16.7394H75.9107V15.1075ZM75.9107 16.7394H77.5427V18.3714H75.9107V16.7394ZM75.9107 18.3714H77.5427V20.0033H75.9107V18.3714ZM77.5427 18.3714H79.1746V20.0033H77.5427V18.3714ZM79.1746 18.3714H80.8065V20.0033H79.1746V18.3714ZM79.1746 16.7394H80.8065V18.3714H79.1746V16.7394ZM77.5427 16.7394H79.1746V18.3714H77.5427V16.7394ZM77.5427 20.0033H79.1746V21.6352H77.5427V20.0033ZM77.5427 21.6352H79.1746V23.2672H77.5427V21.6352ZM77.5427 23.2672H79.1746V24.8991H77.5427V23.2672ZM75.9107 23.2672H77.5427V24.8991H75.9107V23.2672ZM75.9107 24.8991H77.5427V26.531H75.9107V24.8991ZM75.9107 21.6352H77.5427V23.2672H75.9107V21.6352ZM75.9107 20.0033H77.5427V21.6352H75.9107V20.0033ZM79.1746 20.0033H80.8065V21.6352H79.1746V20.0033ZM79.1746 21.6352H80.8065V23.2672H79.1746V21.6352ZM79.1746 23.2672H80.8065V24.8991H79.1746V23.2672ZM79.1746 24.8991H80.8065V26.531H79.1746V24.8991ZM77.5427 24.8991H79.1746V26.531H77.5427V24.8991ZM77.5427 26.531H79.1746V28.163H77.5427V26.531ZM79.1746 26.531H80.8065V28.163H79.1746V26.531ZM80.8065 26.531H82.4385V28.163H80.8065V26.531ZM80.8065 24.8991H82.4385V26.531H80.8065V24.8991ZM79.1746 28.163H80.8065V29.7949H79.1746V28.163ZM80.8065 28.163H82.4385V29.7949H80.8065V28.163ZM82.4385 28.163H84.0704V29.7949H82.4385V28.163ZM84.0704 28.163H85.7023V29.7949H84.0704V28.163ZM85.7023 28.163H87.3343V29.7949H85.7023V28.163ZM87.3343 28.163H88.9662V29.7949H87.3343V28.163ZM85.7023 26.531H87.3343V28.163H85.7023V26.531ZM84.0704 26.531H85.7023V28.163H84.0704V26.531ZM82.4385 26.531H84.0704V28.163H82.4385V26.531ZM87.3343 26.531H88.9662V28.163H87.3343V26.531ZM88.9662 26.531H90.5982V28.163H88.9662V26.531ZM87.3343 24.8991H88.9662V26.531H87.3343V24.8991ZM85.7023 24.8991H87.3343V26.531H85.7023V24.8991ZM88.9662 24.8991H90.5982V26.531H88.9662V24.8991ZM90.5982 24.8991H92.2301V26.531H90.5982V24.8991ZM88.9662 16.7394H90.5982V18.3714H88.9662V16.7394ZM90.5982 16.7394H92.2301V18.3714H90.5982V16.7394ZM90.5982 15.1075H92.2301V16.7394H90.5982V15.1075ZM87.3343 16.7394H88.9662V18.3714H87.3343V16.7394ZM87.3343 15.1075H88.9662V16.7394H87.3343V15.1075ZM88.9662 15.1075H90.5982V16.7394H88.9662V15.1075ZM82.4385 24.8991H84.0704V26.531H82.4385V24.8991ZM84.0704 24.8991H85.7023V26.531H84.0704V24.8991ZM90.5982 18.3714H92.2301V20.0033H90.5982V18.3714ZM88.9662 18.3714H90.5982V20.0033H88.9662V18.3714ZM87.3343 18.3714H88.9662V20.0033H87.3343V18.3714ZM82.4385 20.0033H84.0704V21.6352H82.4385V20.0033ZM84.0704 20.0033H85.7023V21.6352H84.0704V20.0033ZM85.7023 20.0033H87.3343V21.6352H85.7023V20.0033ZM87.3343 20.0033H88.9662V21.6352H87.3343V20.0033ZM88.9662 20.0033H90.5982V21.6352H88.9662V20.0033ZM90.5982 20.0033H92.2301V21.6352H90.5982V20.0033ZM80.8065 20.0033H82.4385V21.6352H80.8065V20.0033ZM80.8065 15.1075H82.4385V16.7394H80.8065V15.1075ZM82.4385 15.1075H84.0704V16.7394H82.4385V15.1075ZM84.0704 15.1075H85.7023V16.7394H84.0704V15.1075ZM85.7023 15.1075H87.3343V16.7394H85.7023V15.1075ZM90.5982 21.6352H92.2301V23.2672H90.5982V21.6352ZM88.9662 21.6352H90.5982V23.2672H88.9662V21.6352ZM85.7023 21.6352H87.3343V23.2672H85.7023V21.6352ZM84.0704 21.6352H85.7023V23.2672H84.0704V21.6352ZM82.4385 21.6352H84.0704V23.2672H82.4385V21.6352ZM80.8065 21.6352H82.4385V23.2672H80.8065V21.6352ZM87.3343 21.6352H88.9662V23.2672H87.3343V21.6352ZM98.7531 11.8436H100.385V13.4755H98.7531V11.8436ZM97.1211 13.4755H98.7531V15.1075H97.1211V13.4755ZM97.1211 15.1075H98.7531V16.7394H97.1211V15.1075ZM95.4892 13.4755H97.1211V15.1075H95.4892V13.4755ZM95.4892 11.8436H97.1211V13.4755H95.4892V11.8436ZM97.1211 11.8436H98.7531V13.4755H97.1211V11.8436ZM97.1211 16.7394H98.7531V18.3714H97.1211V16.7394ZM95.4892 16.7394H97.1211V18.3714H95.4892V16.7394ZM95.4892 18.3714H97.1211V20.0033H95.4892V18.3714ZM95.4892 15.1075H97.1211V16.7394H95.4892V15.1075ZM95.4892 20.0033H97.1211V21.6352H95.4892V20.0033ZM95.4892 21.6352H97.1211V23.2672H95.4892V21.6352ZM95.4892 23.2672H97.1211V24.8991H95.4892V23.2672ZM95.4892 24.8991H97.1211V26.531H95.4892V24.8991ZM95.4892 26.531H97.1211V28.163H95.4892V26.531ZM97.1211 26.531H98.7531V28.163H97.1211V26.531ZM98.7531 26.531H100.385V28.163H98.7531V26.531ZM98.7531 28.163H100.385V29.7949H98.7531V28.163ZM97.1211 28.163H98.7531V29.7949H97.1211V28.163ZM95.4892 28.163H97.1211V29.7949H95.4892V28.163ZM98.7531 24.8991H100.385V26.531H98.7531V24.8991ZM98.7531 23.2672H100.385V24.8991H98.7531V23.2672ZM98.7531 21.6352H100.385V23.2672H98.7531V21.6352ZM98.7531 20.0033H100.385V21.6352H98.7531V20.0033ZM98.7531 18.3714H100.385V20.0033H98.7531V18.3714ZM98.7531 16.7394H100.385V18.3714H98.7531V16.7394ZM98.7531 15.1075H100.385V16.7394H98.7531V15.1075ZM98.7531 13.4755H100.385V15.1075H98.7531V13.4755ZM97.1211 18.3714H98.7531V20.0033H97.1211V18.3714ZM97.1211 21.6352H98.7531V23.2672H97.1211V21.6352ZM97.1211 23.2672H98.7531V24.8991H97.1211V23.2672ZM97.1211 24.8991H98.7531V26.531H97.1211V24.8991ZM97.1211 20.0033H98.7531V21.6352H97.1211V20.0033ZM106.913 28.163H108.545V29.7949H106.913V28.163ZM108.545 28.163H110.177V29.7949H108.545V28.163ZM108.545 26.531H110.177V28.163H108.545V26.531ZM108.545 24.8991H110.177V26.531H108.545V24.8991ZM108.545 23.2672H110.177V24.8991H108.545V23.2672ZM110.177 23.2672H111.809V24.8991H110.177V23.2672ZM110.177 21.6352H111.809V23.2672H110.177V21.6352ZM110.177 24.8991H111.809V26.531H110.177V24.8991ZM110.177 26.531H111.809V28.163H110.177V26.531ZM110.177 28.163H111.809V29.7949H110.177V28.163ZM106.913 26.531H108.545V28.163H106.913V26.531ZM106.913 24.8991H108.545V26.531H106.913V24.8991ZM106.913 23.2672H108.545V24.8991H106.913V23.2672ZM106.913 21.6352H108.545V23.2672H106.913V21.6352ZM106.913 20.0033H108.545V21.6352H106.913V20.0033ZM106.913 18.3714H108.545V20.0033H106.913V18.3714ZM106.913 16.7394H108.545V18.3714H106.913V16.7394ZM106.913 15.1075H108.545V16.7394H106.913V15.1075ZM106.913 13.4755H108.545V15.1075H106.913V13.4755ZM105.281 13.4755H106.913V15.1075H105.281V13.4755ZM103.649 13.4755H105.281V15.1075H103.649V13.4755ZM108.545 15.1075H110.177V16.7394H108.545V15.1075ZM108.545 16.7394H110.177V18.3714H108.545V16.7394ZM108.545 18.3714H110.177V20.0033H108.545V18.3714ZM108.545 20.0033H110.177V21.6352H108.545V20.0033ZM108.545 21.6352H110.177V23.2672H108.545V21.6352ZM110.177 20.0033H111.809V21.6352H110.177V20.0033ZM110.177 18.3714H111.809V20.0033H110.177V18.3714ZM110.177 16.7394H111.809V18.3714H110.177V16.7394ZM110.177 15.1075H111.809V16.7394H110.177V15.1075ZM108.545 13.4755H110.177V15.1075H108.545V13.4755ZM106.913 11.8436H108.545V13.4755H106.913V11.8436ZM105.281 11.8436H106.913V13.4755H105.281V11.8436ZM103.649 11.8436H105.281V13.4755H103.649V11.8436ZM102.017 11.8436H103.649V13.4755H102.017V11.8436ZM102.017 13.4755H103.649V15.1075H102.017V13.4755ZM100.385 13.4755H102.017V15.1075H100.385V13.4755ZM100.385 15.1075H102.017V16.7394H100.385V15.1075ZM102.017 15.1075H103.649V16.7394H102.017V15.1075ZM103.649 15.1075H105.281V16.7394H103.649V15.1075ZM105.281 15.1075H106.913V16.7394H105.281V15.1075ZM100.385 16.7394H102.017V18.3714H100.385V16.7394ZM121.595 6.94779H123.227V8.57973H121.595V6.94779ZM121.595 8.57973H123.227V10.2117H121.595V8.57973ZM119.963 8.57973H121.595V10.2117H119.963V8.57973ZM121.595 10.2117H123.227V11.8436H121.595V10.2117ZM119.963 10.2117H121.595V11.8436H119.963V10.2117ZM118.332 10.2117H119.963V11.8436H118.332V10.2117ZM118.332 11.8436H119.963V13.4755H118.332V11.8436ZM119.963 11.8436H121.595V13.4755H119.963V11.8436ZM121.595 11.8436H123.227V13.4755H121.595V11.8436ZM121.595 13.4755H123.227V15.1075H121.595V13.4755ZM119.963 13.4755H121.595V15.1075H119.963V13.4755ZM118.332 13.4755H119.963V15.1075H118.332V13.4755ZM116.7 13.4755H118.332V15.1075H116.7V13.4755ZM115.068 13.4755H116.7V15.1075H115.068V13.4755ZM115.068 15.1075H116.7V16.7394H115.068V15.1075ZM116.7 15.1075H118.332V16.7394H116.7V15.1075ZM118.332 15.1075H119.963V16.7394H118.332V15.1075ZM119.963 15.1075H121.595V16.7394H119.963V15.1075ZM121.595 15.1075H123.227V16.7394H121.595V15.1075ZM123.227 15.1075H124.859V16.7394H123.227V15.1075ZM124.859 15.1075H126.491V16.7394H124.859V15.1075ZM126.491 15.1075H128.123V16.7394H126.491V15.1075ZM126.491 13.4755H128.123V15.1075H126.491V13.4755ZM124.859 13.4755H126.491V15.1075H124.859V13.4755ZM123.227 13.4755H124.859V15.1075H123.227V13.4755ZM118.332 16.7394H119.963V18.3714H118.332V16.7394ZM119.963 16.7394H121.595V18.3714H119.963V16.7394ZM121.595 16.7394H123.227V18.3714H121.595V16.7394ZM121.595 18.3714H123.227V20.0033H121.595V18.3714ZM121.595 20.0033H123.227V21.6352H121.595V20.0033ZM121.595 21.6352H123.227V23.2672H121.595V21.6352ZM121.595 23.2672H123.227V24.8991H121.595V23.2672ZM119.963 23.2672H121.595V24.8991H119.963V23.2672ZM119.963 21.6352H121.595V23.2672H119.963V21.6352ZM119.963 20.0033H121.595V21.6352H119.963V20.0033ZM119.963 18.3714H121.595V20.0033H119.963V18.3714ZM118.332 18.3714H119.963V20.0033H118.332V18.3714ZM118.332 20.0033H119.963V21.6352H118.332V20.0033ZM118.332 21.6352H119.963V23.2672H118.332V21.6352ZM118.332 23.2672H119.963V24.8991H118.332V23.2672ZM118.332 24.8991H119.963V26.531H118.332V24.8991ZM119.963 24.8991H121.595V26.531H119.963V24.8991ZM121.595 24.8991H123.227V26.531H121.595V24.8991ZM123.227 24.8991H124.859V26.531H123.227V24.8991ZM123.227 26.531H124.859V28.163H123.227V26.531ZM121.595 26.531H123.227V28.163H121.595V26.531ZM119.963 26.531H121.595V28.163H119.963V26.531ZM124.859 26.531H126.491V28.163H124.859V26.531ZM126.491 26.531H128.123V28.163H126.491V26.531ZM126.491 28.163H128.123V29.7949H126.491V28.163ZM124.859 28.163H126.491V29.7949H124.859V28.163ZM123.227 28.163H124.859V29.7949H123.227V28.163ZM121.595 28.163H123.227V29.7949H121.595V28.163ZM134.64 11.8436H136.272V13.4755H134.64V11.8436ZM136.272 11.8436H137.904V13.4755H136.272V11.8436ZM137.904 11.8436H139.536V13.4755H137.904V11.8436ZM139.536 11.8436H141.168V13.4755H139.536V11.8436ZM141.168 11.8436H142.799V13.4755H141.168V11.8436ZM142.799 11.8436H144.431V13.4755H142.799V11.8436ZM144.431 13.4755H146.063V15.1075H144.431V13.4755ZM142.799 13.4755H144.431V15.1075H142.799V13.4755ZM141.168 13.4755H142.799V15.1075H141.168V13.4755ZM139.536 13.4755H141.168V15.1075H139.536V13.4755ZM137.904 13.4755H139.536V15.1075H137.904V13.4755ZM136.272 13.4755H137.904V15.1075H136.272V13.4755ZM134.64 13.4755H136.272V15.1075H134.64V13.4755ZM133.008 13.4755H134.64V15.1075H133.008V13.4755ZM133.008 15.1075H134.64V16.7394H133.008V15.1075ZM134.64 15.1075H136.272V16.7394H134.64V15.1075ZM131.376 15.1075H133.008V16.7394H131.376V15.1075ZM131.376 16.7394H133.008V18.3714H131.376V16.7394ZM131.376 18.3714H133.008V20.0033H131.376V18.3714ZM133.008 18.3714H134.64V20.0033H133.008V18.3714ZM134.64 18.3714H136.272V20.0033H134.64V18.3714ZM134.64 16.7394H136.272V18.3714H134.64V16.7394ZM133.008 16.7394H134.64V18.3714H133.008V16.7394ZM133.008 20.0033H134.64V21.6352H133.008V20.0033ZM133.008 21.6352H134.64V23.2672H133.008V21.6352ZM133.008 23.2672H134.64V24.8991H133.008V23.2672ZM131.376 23.2672H133.008V24.8991H131.376V23.2672ZM131.376 24.8991H133.008V26.531H131.376V24.8991ZM131.376 21.6352H133.008V23.2672H131.376V21.6352ZM131.376 20.0033H133.008V21.6352H131.376V20.0033ZM134.64 20.0033H136.272V21.6352H134.64V20.0033ZM134.64 21.6352H136.272V23.2672H134.64V21.6352ZM134.64 23.2672H136.272V24.8991H134.64V23.2672ZM134.64 24.8991H136.272V26.531H134.64V24.8991ZM133.008 24.8991H134.64V26.531H133.008V24.8991ZM133.008 26.531H134.64V28.163H133.008V26.531ZM134.64 26.531H136.272V28.163H134.64V26.531ZM136.272 26.531H137.904V28.163H136.272V26.531ZM136.272 24.8991H137.904V26.531H136.272V24.8991ZM134.64 28.163H136.272V29.7949H134.64V28.163ZM136.272 28.163H137.904V29.7949H136.272V28.163ZM137.904 28.163H139.536V29.7949H137.904V28.163ZM139.536 28.163H141.168V29.7949H139.536V28.163ZM141.168 28.163H142.799V29.7949H141.168V28.163ZM142.799 28.163H144.431V29.7949H142.799V28.163ZM141.168 26.531H142.799V28.163H141.168V26.531ZM139.536 26.531H141.168V28.163H139.536V26.531ZM137.904 26.531H139.536V28.163H137.904V26.531ZM142.799 26.531H144.431V28.163H142.799V26.531ZM144.431 26.531H146.063V28.163H144.431V26.531ZM142.799 24.8991H144.431V26.531H142.799V24.8991ZM141.168 24.8991H142.799V26.531H141.168V24.8991ZM144.431 24.8991H146.063V26.531H144.431V24.8991ZM146.063 24.8991H147.695V26.531H146.063V24.8991ZM144.431 16.7394H146.063V18.3714H144.431V16.7394ZM146.063 16.7394H147.695V18.3714H146.063V16.7394ZM146.063 15.1075H147.695V16.7394H146.063V15.1075ZM142.799 16.7394H144.431V18.3714H142.799V16.7394ZM142.799 15.1075H144.431V16.7394H142.799V15.1075ZM144.431 15.1075H146.063V16.7394H144.431V15.1075ZM137.904 24.8991H139.536V26.531H137.904V24.8991ZM139.536 24.8991H141.168V26.531H139.536V24.8991ZM146.063 18.3714H147.695V20.0033H146.063V18.3714ZM144.431 18.3714H146.063V20.0033H144.431V18.3714ZM142.799 18.3714H144.431V20.0033H142.799V18.3714ZM137.904 20.0033H139.536V21.6352H137.904V20.0033ZM139.536 20.0033H141.168V21.6352H139.536V20.0033ZM141.168 20.0033H142.799V21.6352H141.168V20.0033ZM142.799 20.0033H144.431V21.6352H142.799V20.0033ZM144.431 20.0033H146.063V21.6352H144.431V20.0033ZM146.063 20.0033H147.695V21.6352H146.063V20.0033ZM136.272 20.0033H137.904V21.6352H136.272V20.0033ZM136.272 15.1075H137.904V16.7394H136.272V15.1075ZM137.904 15.1075H139.536V16.7394H137.904V15.1075ZM139.536 15.1075H141.168V16.7394H139.536V15.1075ZM141.168 15.1075H142.799V16.7394H141.168V15.1075ZM146.063 21.6352H147.695V23.2672H146.063V21.6352ZM144.431 21.6352H146.063V23.2672H144.431V21.6352ZM141.168 21.6352H142.799V23.2672H141.168V21.6352ZM139.536 21.6352H141.168V23.2672H139.536V21.6352ZM137.904 21.6352H139.536V23.2672H137.904V21.6352ZM136.272 21.6352H137.904V23.2672H136.272V21.6352ZM142.799 21.6352H144.431V23.2672H142.799V21.6352ZM157.482 6.94779H159.114V8.57973H157.482V6.94779ZM157.482 8.57973H159.114V10.2117H157.482V8.57973ZM155.85 8.57973H157.482V10.2117H155.85V8.57973ZM157.482 10.2117H159.114V11.8436H157.482V10.2117ZM155.85 10.2117H157.482V11.8436H155.85V10.2117ZM154.218 10.2117H155.85V11.8436H154.218V10.2117ZM154.218 11.8436H155.85V13.4755H154.218V11.8436ZM155.85 11.8436H157.482V13.4755H155.85V11.8436ZM157.482 11.8436H159.114V13.4755H157.482V11.8436ZM157.482 13.4755H159.114V15.1075H157.482V13.4755ZM155.85 13.4755H157.482V15.1075H155.85V13.4755ZM154.218 13.4755H155.85V15.1075H154.218V13.4755ZM152.586 13.4755H154.218V15.1075H152.586V13.4755ZM150.954 13.4755H152.586V15.1075H150.954V13.4755ZM150.954 15.1075H152.586V16.7394H150.954V15.1075ZM152.586 15.1075H154.218V16.7394H152.586V15.1075ZM154.218 15.1075H155.85V16.7394H154.218V15.1075ZM155.85 15.1075H157.482V16.7394H155.85V15.1075ZM157.482 15.1075H159.114V16.7394H157.482V15.1075ZM159.114 15.1075H160.746V16.7394H159.114V15.1075ZM160.746 15.1075H162.378V16.7394H160.746V15.1075ZM162.378 15.1075H164.01V16.7394H162.378V15.1075ZM162.378 13.4755H164.01V15.1075H162.378V13.4755ZM160.746 13.4755H162.378V15.1075H160.746V13.4755ZM159.114 13.4755H160.746V15.1075H159.114V13.4755ZM154.218 16.7394H155.85V18.3714H154.218V16.7394ZM155.85 16.7394H157.482V18.3714H155.85V16.7394ZM157.482 16.7394H159.114V18.3714H157.482V16.7394ZM157.482 18.3714H159.114V20.0033H157.482V18.3714ZM157.482 20.0033H159.114V21.6352H157.482V20.0033ZM157.482 21.6352H159.114V23.2672H157.482V21.6352ZM157.482 23.2672H159.114V24.8991H157.482V23.2672ZM155.85 23.2672H157.482V24.8991H155.85V23.2672ZM155.85 21.6352H157.482V23.2672H155.85V21.6352ZM155.85 20.0033H157.482V21.6352H155.85V20.0033ZM155.85 18.3714H157.482V20.0033H155.85V18.3714ZM154.218 18.3714H155.85V20.0033H154.218V18.3714ZM154.218 20.0033H155.85V21.6352H154.218V20.0033ZM154.218 21.6352H155.85V23.2672H154.218V21.6352ZM154.218 23.2672H155.85V24.8991H154.218V23.2672ZM154.218 24.8991H155.85V26.531H154.218V24.8991ZM155.85 24.8991H157.482V26.531H155.85V24.8991ZM157.482 24.8991H159.114V26.531H157.482V24.8991ZM159.114 24.8991H160.746V26.531H159.114V24.8991ZM159.114 26.531H160.746V28.163H159.114V26.531ZM157.482 26.531H159.114V28.163H157.482V26.531ZM155.85 26.531H157.482V28.163H155.85V26.531ZM160.746 26.531H162.378V28.163H160.746V26.531ZM162.378 26.531H164.01V28.163H162.378V26.531ZM162.378 28.163H164.01V29.7949H162.378V28.163ZM160.746 28.163H162.378V29.7949H160.746V28.163ZM159.114 28.163H160.746V29.7949H159.114V28.163ZM157.482 28.163H159.114V29.7949H157.482V28.163ZM167.263 11.8436H168.895V13.4755H167.263V11.8436ZM168.895 11.8436H170.526V13.4755H168.895V11.8436ZM168.895 13.4755H170.526V15.1075H168.895V13.4755ZM170.526 13.4755H172.158V15.1075H170.526V13.4755ZM170.526 15.1075H172.158V16.7394H170.526V15.1075ZM170.526 16.7394H172.158V18.3714H170.526V16.7394ZM170.526 11.8436H172.158V13.4755H170.526V11.8436ZM167.263 13.4755H168.895V15.1075H167.263V13.4755ZM167.263 15.1075H168.895V16.7394H167.263V15.1075ZM167.263 16.7394H168.895V18.3714H167.263V16.7394ZM167.263 18.3714H168.895V20.0033H167.263V18.3714ZM168.895 18.3714H170.526V20.0033H168.895V18.3714ZM168.895 16.7394H170.526V18.3714H168.895V16.7394ZM168.895 15.1075H170.526V16.7394H168.895V15.1075ZM170.526 18.3714H172.158V20.0033H170.526V18.3714ZM170.526 20.0033H172.158V21.6352H170.526V20.0033ZM168.895 20.0033H170.526V21.6352H168.895V20.0033ZM167.263 20.0033H168.895V21.6352H167.263V20.0033ZM167.263 21.6352H168.895V23.2672H167.263V21.6352ZM168.895 21.6352H170.526V23.2672H168.895V21.6352ZM170.526 21.6352H172.158V23.2672H170.526V21.6352ZM172.158 21.6352H173.79V23.2672H172.158V21.6352ZM181.95 11.8436H183.582V13.4755H181.95V11.8436ZM180.318 11.8436H181.95V13.4755H180.318V11.8436ZM180.318 13.4755H181.95V15.1075H180.318V13.4755ZM178.686 13.4755H180.318V15.1075H178.686V13.4755ZM178.686 11.8436H180.318V13.4755H178.686V11.8436ZM178.686 15.1075H180.318V16.7394H178.686V15.1075ZM178.686 16.7394H180.318V18.3714H178.686V16.7394ZM178.686 18.3714H180.318V20.0033H178.686V18.3714ZM178.686 20.0033H180.318V21.6352H178.686V20.0033ZM180.318 20.0033H181.95V21.6352H180.318V20.0033ZM180.318 21.6352H181.95V23.2672H180.318V21.6352ZM181.95 20.0033H183.582V21.6352H181.95V20.0033ZM181.95 18.3714H183.582V20.0033H181.95V18.3714ZM181.95 16.7394H183.582V18.3714H181.95V16.7394ZM181.95 15.1075H183.582V16.7394H181.95V15.1075ZM181.95 13.4755H183.582V15.1075H181.95V13.4755ZM180.318 16.7394H181.95V18.3714H180.318V16.7394ZM180.318 18.3714H181.95V20.0033H180.318V18.3714ZM180.318 15.1075H181.95V16.7394H180.318V15.1075ZM181.95 21.6352H183.582V23.2672H181.95V21.6352ZM180.318 23.2672H181.95V24.8991H180.318V23.2672ZM178.686 21.6352H180.318V23.2672H178.686V21.6352ZM178.686 24.8991H180.318V26.531H178.686V24.8991ZM177.054 24.8991H178.686V26.531H177.054V24.8991ZM177.054 26.531H178.686V28.163H177.054V26.531ZM175.422 26.531H177.054V28.163H175.422V26.531ZM175.422 28.163H177.054V29.7949H175.422V28.163ZM173.79 28.163H175.422V29.7949H173.79V28.163ZM173.79 29.7949H175.422V31.4269H173.79V29.7949ZM172.158 29.7949H173.79V31.4269H172.158V29.7949ZM172.158 31.4269H173.79V33.0588H172.158V31.4269ZM170.526 31.4269H172.158V33.0588H170.526V31.4269ZM170.526 33.0588H172.158V34.6907H170.526V33.0588ZM168.895 33.0588H170.526V34.6907H168.895V33.0588ZM167.263 33.0588H168.895V34.6907H167.263V33.0588ZM167.263 31.4269H168.895V33.0588H167.263V31.4269ZM168.895 31.4269H170.526V33.0588H168.895V31.4269ZM168.895 29.7949H170.526V31.4269H168.895V29.7949ZM170.526 29.7949H172.158V31.4269H170.526V29.7949ZM170.526 28.163H172.158V29.7949H170.526V28.163ZM172.158 28.163H173.79V29.7949H172.158V28.163ZM172.158 26.531H173.79V28.163H172.158V26.531ZM172.158 24.8991H173.79V26.531H172.158V24.8991ZM170.526 24.8991H172.158V26.531H170.526V24.8991ZM170.526 23.2672H172.158V24.8991H170.526V23.2672ZM168.895 23.2672H170.526V24.8991H168.895V23.2672ZM172.158 23.2672H173.79V24.8991H172.158V23.2672ZM173.79 24.8991H175.422V26.531H173.79V24.8991ZM173.79 26.531H175.422V28.163H173.79V26.531ZM175.422 24.8991H177.054V26.531H175.422V24.8991ZM177.054 23.2672H178.686V24.8991H177.054V23.2672ZM178.686 23.2672H180.318V24.8991H178.686V23.2672ZM175.422 23.2672H177.054V24.8991H175.422V23.2672ZM177.054 21.6352H178.686V23.2672H177.054V21.6352ZM173.79 23.2672H175.422V24.8991H173.79V23.2672Z" fill="white"/>
<path d="M2.10593 13.0147C2.11142 12.9717 2.11691 12.9286 2.14814 12.8312C2.5016 12.0701 2.81224 11.3547 3.16438 10.6603C3.33583 10.3222 3.58481 10.0234 3.80478 9.74588C3.80993 9.8318 3.81808 9.88104 3.80673 9.92527C3.10554 12.6598 2.82291 15.4394 3.17911 18.2392C3.36905 19.7322 3.68887 21.2339 4.16455 22.6602C5.24059 25.8866 7.187 28.5717 9.69401 30.8505C9.94639 31.0799 10.3027 31.2481 10.6377 31.321C11.1407 31.4306 11.6837 31.0929 11.9177 30.6362C12.1886 30.1073 12.1116 29.5601 11.7023 29.1196C10.873 28.2271 9.984 27.3825 9.22567 26.4335C7.70345 24.5284 6.65666 22.3761 6.11626 19.9835C5.67477 18.0288 5.59748 16.0623 5.77422 14.0709C5.99635 11.5683 6.62643 9.17843 7.71549 6.92039C8.04293 6.24146 8.13689 5.62771 7.77488 4.94532C8.7567 4.24995 9.69938 3.556 10.6776 2.91638C11.2479 2.54345 11.8751 2.25748 12.4767 1.93239C12.7729 1.82254 13.0691 1.71269 13.4255 1.57733C13.7093 1.49052 13.9308 1.4198 14.1567 1.36946C15.4691 1.07707 16.7825 0.789467 18.0956 0.500248C18.1477 0.488513 18.1997 0.476779 18.3147 0.446478C20.1707 0.387281 21.9617 0.386416 23.7371 0.696937C23.7835 0.723248 23.8298 0.749558 23.9408 0.783608C24.5749 0.95069 25.1443 1.11003 25.694 1.29378C24.9798 1.84357 24.8468 2.59722 25.3335 3.32654C27.0162 5.84795 28.4528 8.48861 29.301 11.4196C30.0029 13.8452 30.2695 16.3156 30.0195 18.8283C29.8116 20.9188 29.2366 22.9312 28.6489 24.9418C27.6327 28.4181 28.0358 31.6794 30.2307 34.6404C30.4513 34.938 30.6663 35.2398 30.8721 35.5714C30.4243 35.9006 29.9884 36.198 29.5524 36.4954C29.5031 36.5163 29.4538 36.5373 29.356 36.5833C29.181 36.6408 29.0544 36.6732 28.9078 36.6724C28.8647 36.565 28.8323 36.4923 28.8197 36.4164C28.5743 34.9331 28.1186 33.522 27.2212 32.3026C25.7487 30.3019 23.6979 29.9686 21.5972 31.1812C20.126 32.0304 19.6441 33.4764 19.5198 35.064C19.4188 36.3534 19.632 37.6169 19.9321 38.8593C19.3587 38.8346 18.8287 38.8096 18.2988 38.7847C18.2533 38.7808 18.2079 38.7769 18.0888 38.7687C17.2221 38.6246 16.4291 38.4847 15.6476 38.3169C16.3199 37.1205 17.0442 35.9827 17.6254 34.7759C18.3389 33.2944 18.7238 31.7086 18.5632 30.0445C18.4981 29.3696 18.4607 28.6035 17.8683 28.1702C16.6136 27.2524 15.447 26.2565 14.4173 25.0867C13.0453 23.528 11.9759 21.7999 11.3131 19.8314C10.7054 18.0265 10.5593 16.1773 10.7559 14.2808C10.9518 12.3918 11.3789 10.5844 12.341 8.93229C12.9274 7.92518 13.7059 7.09969 14.7852 6.61527C16.4572 5.86484 18.1481 6.00969 19.8069 6.63738C21.3436 7.2189 22.1491 8.49932 22.7256 9.94665C22.8929 10.3665 22.9833 10.8169 23.1089 11.2533C23.0649 11.2808 23.0208 11.3082 22.9768 11.3356C22.4483 11.0793 21.9224 10.8176 21.3908 10.5679C20.3798 10.093 19.3314 9.70524 18.2117 9.64165C16.502 9.54456 15.1124 10.2 14.0459 11.5566C12.7694 13.1804 12.2535 14.9853 12.6215 17.0363C12.9607 18.9265 13.7999 20.586 14.9056 22.1284C16.286 24.0539 17.9879 25.6303 20.1323 26.6516C22.2903 27.6794 24.5894 27.6884 26.1961 25.5379C27.2327 24.1504 27.5092 22.6219 26.8731 20.9807C26.5952 20.2637 25.9531 19.9918 25.2283 20.2339C24.5819 20.4499 24.2427 21.1118 24.3827 21.8042C24.4562 22.1682 24.4978 22.5472 24.4881 22.9177C24.4637 23.8549 23.6098 24.6843 22.7101 24.6642C21.6187 24.6399 20.7321 24.0748 19.9024 23.4687C17.9807 22.0646 16.539 20.2514 15.6473 18.0386C15.0184 16.4779 14.8892 14.9263 15.9093 13.4271C16.5401 12.5 17.5699 12.0204 18.6235 12.3971C19.6946 12.78 20.7255 13.275 21.7744 13.7199C22.2624 13.9268 22.7379 14.1774 23.2433 14.3256C23.9827 14.5425 24.7701 14.2077 25.2072 13.5787C25.6859 12.8898 25.7987 12.1285 25.7245 11.3071C25.4986 8.8065 24.4108 6.73566 22.4784 5.17802C20.8046 3.82877 18.79 3.4305 16.6655 3.50841C13.932 3.60865 11.8202 4.87664 10.3706 7.11111C8.21689 10.431 7.69425 14.1629 8.18932 18.0129C8.67058 21.7555 10.4873 24.8916 13.0881 27.5757C13.8683 28.3809 14.763 29.0746 15.5916 29.8343C15.7418 29.9721 15.9048 30.1744 15.9235 30.3608C15.9618 30.7451 15.9462 31.1452 15.8831 31.5273C15.6371 33.0178 14.9541 34.3369 14.2329 35.6414C13.8846 36.2714 13.2934 36.8063 13.3687 37.6254C13.1072 37.5602 12.8804 37.4991 12.6537 37.438C12.6106 37.4087 12.5675 37.3795 12.4754 37.3227C12.0609 37.0881 11.6955 36.881 11.3299 36.6359C11.5824 35.6073 11.3624 35.167 10.4284 34.5968C8.03863 33.138 6.15735 31.2047 5.00033 28.6259C4.44936 27.3978 3.91778 27.1403 2.68214 27.5574C2.56947 27.3318 2.46178 27.1396 2.38879 26.935C2.07537 26.0566 1.77216 25.1745 1.46522 24.2938C1.41677 24.0574 1.36832 23.8211 1.29466 23.5204C1.2424 23.3044 1.19896 23.1536 1.19085 23.001C1.11395 21.5531 1.04305 20.1048 0.970428 18.6567C0.972169 18.6095 0.973909 18.5622 0.978771 18.4414C0.98374 18.2096 0.985587 18.0515 1.01062 17.8697C1.04077 17.7373 1.04774 17.6286 1.06166 17.481C1.07376 17.3111 1.0789 17.1799 1.1044 17.0312C1.13193 16.9627 1.13909 16.9117 1.1535 16.8208C1.19825 16.4329 1.23576 16.0849 1.27327 15.737C1.33592 15.5385 1.39856 15.3401 1.48534 15.0807C1.70829 14.3514 1.90711 13.6831 2.10593 13.0147ZM20.2368 15.2145C19.4482 15.0203 18.8967 15.2276 18.5626 15.8437C18.2451 16.4294 18.3655 16.9085 18.9716 17.5042C19.3171 17.8437 19.6777 18.1712 19.9922 18.5379C20.4511 19.0732 20.5802 19.7114 20.5631 20.4159C20.545 21.1557 21.1096 21.7855 21.7341 21.8381C22.4325 21.897 23.1011 21.4669 23.1545 20.8321C23.2034 20.2512 23.2101 19.6447 23.0985 19.0765C22.765 17.3791 21.6693 16.2052 20.2368 15.2145ZM26.0354 15.3922C26.0016 16.0883 25.887 16.7927 25.9564 17.4784C26.0288 18.1933 26.6336 18.5335 27.4191 18.4607C28.0054 18.4063 28.4931 17.8902 28.525 17.2546C28.5469 16.8174 28.5445 16.3777 28.5265 15.9402C28.4971 15.222 27.9261 14.7203 27.2071 14.6888C26.6732 14.6654 26.3799 14.9902 26.0354 15.3922Z" fill="#FFD2A8"/>
<path d="M38.208 12.8203C38.2226 12.8714 38.2372 12.9225 38.2735 13.0301C38.352 13.2958 38.4016 13.5073 38.4666 13.7139C38.9435 15.2301 39.2722 16.7741 39.3504 18.3659C39.3515 18.4387 39.3526 18.5115 39.3542 18.6594C39.3603 19.2909 39.4122 19.8515 39.362 20.4027C39.2522 21.6061 39.0904 22.8046 38.9498 24.0051C38.9226 24.0756 38.8953 24.146 38.8465 24.2746C38.6665 24.8551 38.5311 25.386 38.3441 25.898C38.0553 26.6885 37.7311 27.466 37.3847 28.2492C36.7193 28.2083 36.2831 28.5068 35.9451 29.0119C35.6168 29.5023 35.297 30.0042 34.9159 30.452C34.3676 31.0962 33.8691 31.7221 34.3457 32.6406C33.9 33.0667 33.4792 33.4696 33.0318 33.8554C32.4957 33.1118 31.8764 32.4379 31.4983 31.6484C30.5651 29.6999 30.5564 27.6582 31.2102 25.6151C32.0229 23.0756 32.6157 20.4918 32.7463 17.8223C32.8298 16.1156 32.6626 14.4187 32.3396 12.7415C31.7348 9.60057 30.4874 6.71123 28.864 3.97253C28.475 3.31618 28.0831 2.66154 27.7276 2.00684C28.2992 2.229 28.8356 2.45043 29.372 2.67187C29.414 2.70323 29.456 2.7346 29.5433 2.7969C30.5872 3.54114 31.5857 4.25445 32.5767 4.99966C32.1378 5.7036 32.2171 6.32865 32.729 6.9248C32.8604 7.07786 32.9649 7.25586 33.07 7.42947C34.5599 9.88886 35.162 12.6006 35.2874 15.4328C35.3736 17.38 35.1379 19.3107 34.6395 21.188C34.2634 22.6049 33.7359 23.9824 33.2562 25.3706C32.9802 26.1693 33.2296 26.9069 33.914 27.1938C34.6196 27.4896 35.3867 27.1514 35.7029 26.3686C36.0542 25.4991 36.4127 24.6288 36.6959 23.7361C37.3215 21.7647 37.7896 19.7528 37.8385 17.6759C37.8704 16.3218 37.8239 14.964 37.7624 13.6102C37.73 12.8979 37.59 12.1904 37.5263 11.4948C37.772 11.946 37.99 12.3832 38.208 12.8203Z" fill="#FFD2A8"/>
<path d="M27.6925 2.00648C28.0831 2.66191 28.475 3.31656 28.864 3.9729C30.4874 6.71161 31.7348 9.60094 32.3396 12.7419C32.6626 14.4191 32.8299 16.116 32.7463 17.8227C32.6157 20.4922 32.023 23.076 31.2102 25.6155C30.5564 27.6586 30.5651 29.7002 31.4983 31.6488C31.8764 32.4382 32.4957 33.1122 33.0329 33.8937C33.2447 34.4282 33.0614 34.8564 32.8745 35.2842C32.8336 35.3225 32.7928 35.3609 32.7101 35.4363C32.0873 35.8676 31.4878 35.7639 30.8838 35.54C30.6663 35.2401 30.4513 34.9384 30.2307 34.6408C28.0358 31.6797 27.6327 28.4184 28.6489 24.9421C29.2367 22.9315 29.8116 20.9191 30.0195 18.8287C30.2695 16.316 30.0029 13.8455 29.301 11.4199C28.4528 8.48894 27.0162 5.84828 25.3335 3.32687C24.8468 2.59755 24.9798 1.8439 25.734 1.29288C26.3681 1.11149 26.9061 1.14544 27.369 1.56998C27.3951 1.61604 27.4212 1.66209 27.4751 1.75053C27.5661 1.86411 27.6293 1.9353 27.6925 2.00648Z" fill="#FFAC67"/>
<path d="M7.75066 4.96955C8.13689 5.6277 8.04293 6.24144 7.71548 6.92037C6.62643 9.17842 5.99635 11.5683 5.77422 14.0709C5.59747 16.0623 5.67477 18.0288 6.11626 19.9835C6.65665 22.3761 7.70345 24.5284 9.22567 26.4335C9.984 27.3825 10.873 28.2271 11.7023 29.1196C12.1116 29.5601 12.1886 30.1073 11.9177 30.6361C11.6837 31.0929 11.1407 31.4305 10.6377 31.321C10.3027 31.248 9.94639 31.0798 9.69401 30.8504C7.187 28.5717 5.24059 25.8866 4.16455 22.6602C3.68887 21.2339 3.36905 19.7322 3.17911 18.2392C2.82291 15.4394 3.10554 12.6598 3.80673 9.92525C3.81808 9.88102 3.80992 9.83179 3.81455 9.7133C4.07464 8.88621 4.33106 8.13071 4.58747 7.37521C4.61221 7.32935 4.63695 7.28348 4.68594 7.18694C4.95735 6.58555 5.20585 6.03543 5.45129 5.48394C5.71629 4.88848 6.16652 4.56774 6.82351 4.54907C6.89762 4.57096 6.97172 4.59284 7.10561 4.6322C7.36048 4.7563 7.55557 4.86293 7.75066 4.96955Z" fill="#FFAC67"/>
<path d="M37.4987 11.4806C37.59 12.1903 37.73 12.8978 37.7624 13.6101C37.8239 14.964 37.8704 16.3217 37.8385 17.6758C37.7896 19.7527 37.3215 21.7646 36.696 23.736C36.4127 24.6288 36.0542 25.499 35.7029 26.3685C35.3867 27.1513 34.6196 27.4895 33.914 27.1937C33.2296 26.9068 32.9803 26.1693 33.2563 25.3705C33.736 23.9823 34.2634 22.6048 34.6395 21.188C35.1379 19.3107 35.3736 17.3799 35.2874 15.4328C35.162 12.6005 34.5599 9.88878 33.0701 7.42938C32.9649 7.25577 32.8605 7.07777 32.729 6.92471C32.2171 6.32856 32.1378 5.70351 32.6087 4.98583C33.381 4.4784 33.8973 4.43857 34.3925 4.84261C34.5917 5.00519 34.7463 5.22256 34.9212 5.415C34.9855 5.50768 35.0499 5.60035 35.1458 5.73713C35.4571 6.25445 35.7367 6.72766 36.0164 7.20087C36.0304 7.24719 36.0444 7.29351 36.0815 7.39423C36.5693 8.79263 37.034 10.1366 37.4987 11.4806Z" fill="#FFAC68"/>
<path d="M2.7031 27.5853C3.91779 27.1405 4.44937 27.398 5.00034 28.6261C6.15736 31.2049 8.03864 33.1382 10.4284 34.597C11.3624 35.1672 11.5824 35.6075 11.2982 36.6453C10.5057 37.419 10.0092 37.4885 9.10703 36.9203C8.42291 36.4894 7.77078 36.0078 7.10441 35.5487C7.00167 35.4662 6.89893 35.3836 6.75552 35.2611C5.77472 34.1814 4.78596 33.1806 3.91216 32.0877C3.36348 31.4015 2.98738 30.5774 2.53386 29.8151C2.52728 29.7758 2.52071 29.7364 2.49124 29.6365C2.13884 28.8642 2.18742 28.1972 2.7031 27.5853Z" fill="#FFAC68"/>
<path d="M23.9203 38.5642C23.8788 38.5666 23.8374 38.569 23.7253 38.5726C23.3088 38.607 22.9629 38.6401 22.6127 38.6338C22.4669 37.8307 22.3038 37.0703 22.1899 36.3025C22.0717 35.5052 22.1079 34.7069 22.475 33.9708C22.9216 33.0753 24.1313 32.8893 24.8258 33.5895C25.5478 34.3175 25.8299 35.257 26.0909 36.2107C26.2337 36.7328 26.4176 37.2437 26.5477 37.7761C25.6484 38.0498 24.7843 38.307 23.9203 38.5642Z" fill="#FFD2A8"/>
<path d="M38.4845 29.8016C38.0785 30.8994 37.3691 31.7598 36.612 32.5908C36.2511 32.9869 35.826 33.1867 35.2472 33.1312C35.1321 33.1064 35.0579 33.0785 34.9282 33.0272C34.7053 32.875 34.5379 32.7462 34.3706 32.6175C33.8691 31.7222 34.3676 31.0963 34.9159 30.4521C35.2971 30.0043 35.6169 29.5024 35.9451 29.012C36.2831 28.5069 36.7194 28.2084 37.4138 28.2687C38.1417 28.4987 38.4459 28.9757 38.4915 29.6453C38.4883 29.687 38.4851 29.7286 38.4845 29.8016Z" fill="#FFAC68"/>
<path d="M15.6476 38.317C14.6368 38.9323 13.9361 38.7231 13.4185 37.6586C13.2934 36.8064 13.8846 36.2716 14.2329 35.6416C14.9541 34.3371 15.6371 33.018 15.8831 31.5275C15.9462 31.1454 15.9618 30.7453 15.9234 30.361C15.9048 30.1746 15.7418 29.9723 15.5916 29.8345C14.763 29.0748 13.8683 28.3811 13.0881 27.5759C10.4873 24.8918 8.67058 21.7557 8.18932 18.0131C7.69425 14.1631 8.21689 10.4311 10.3706 7.11128C11.8202 4.87682 13.932 3.60883 16.6655 3.50858C18.79 3.43067 20.8046 3.82895 22.4784 5.17819C24.4108 6.73584 25.4986 8.80668 25.7245 11.3073C25.7987 12.1287 25.6859 12.89 25.2072 13.5789C24.7701 14.2079 23.9827 14.5427 23.2433 14.3258C22.7379 14.1775 22.2624 13.927 21.7744 13.7201C20.7255 13.2752 19.6946 12.7801 18.6235 12.3973C17.5699 12.0206 16.5401 12.5002 15.9093 13.4273C14.8892 14.9265 15.0184 16.478 15.6473 18.0388C16.539 20.2516 17.9807 22.0648 19.9024 23.4688C20.7321 24.075 21.6187 24.6401 22.7101 24.6644C23.6098 24.6844 24.4636 23.8551 24.4881 22.9179C24.4978 22.5474 24.4562 22.1683 24.3827 21.8043C24.2427 21.1119 24.5819 20.4501 25.2283 20.2341C25.9531 19.992 26.5952 20.2639 26.8731 20.9808C27.5092 22.6221 27.2327 24.1506 26.1961 25.5381C24.5894 27.6886 22.2903 27.6796 20.1323 26.6518C17.9879 25.6305 16.286 24.0541 14.9056 22.1286C13.7999 20.5862 12.9607 18.9267 12.6215 17.0365C12.2535 14.9855 12.7694 13.1805 14.0459 11.5568C15.1124 10.2002 16.502 9.54473 18.2117 9.64183C19.3314 9.70541 20.3798 10.0931 21.3908 10.5681C21.9224 10.8178 22.4483 11.0795 22.9768 11.3357C23.0208 11.3083 23.0649 11.2809 23.1089 11.2535C22.9833 10.8171 22.8929 10.3667 22.7256 9.94683C22.1491 8.49949 21.3436 7.21907 19.8069 6.63756C18.1481 6.00986 16.4572 5.86502 14.7852 6.61544C13.7059 7.09986 12.9274 7.92535 12.3409 8.93246C11.3789 10.5846 10.9518 12.392 10.7559 14.2809C10.5593 16.1775 10.7054 18.0266 11.3131 19.8315C11.9759 21.8001 13.0453 23.5281 14.4173 25.0869C15.447 26.2567 16.6135 27.2526 17.8683 28.1704C18.4607 28.6037 18.4981 29.3697 18.5632 30.0447C18.7238 31.7088 18.3389 33.2946 17.6254 34.7761C17.0442 35.9829 16.3199 37.1207 15.6476 38.317Z" fill="#FFAC67"/>
<path d="M22.6127 38.6338C22.3856 38.9771 22.2133 39.3738 21.911 39.5665C21.1895 40.0265 20.4989 39.7539 19.9923 38.886C19.632 37.6169 19.4188 36.3534 19.5198 35.0639C19.6442 33.4764 20.1261 32.0304 21.5972 31.1812C23.6979 29.9686 25.7487 30.3018 27.2212 32.3026C28.1186 33.5219 28.5743 34.933 28.8197 36.4164C28.8323 36.4923 28.8647 36.5649 28.9078 36.6723C28.8959 36.7586 28.8463 36.808 28.8346 36.8652C28.5768 38.1194 27.7843 38.4573 26.6135 37.7778C26.4176 37.2436 26.2337 36.7328 26.0909 36.2107C25.8299 35.257 25.5478 34.3175 24.8258 33.5895C24.1313 32.8892 22.9216 33.0752 22.475 33.9708C22.1079 34.7068 22.0717 35.5052 22.1899 36.3024C22.3038 37.0702 22.4669 37.8307 22.6127 38.6338Z" fill="#FFAC67"/>
<path d="M20.2696 15.2296C21.6693 16.2052 22.765 17.3791 23.0984 19.0765C23.2101 19.6448 23.2034 20.2512 23.1545 20.8321C23.101 21.4669 22.4325 21.897 21.7341 21.8382C21.1096 21.7855 20.545 21.1557 20.563 20.416C20.5802 19.7115 20.4511 19.0732 19.9921 18.538C19.6777 18.1713 19.3171 17.8438 18.9716 17.5042C18.3655 16.9085 18.2451 16.4294 18.5626 15.8438C18.8967 15.2276 19.4482 15.0204 20.2696 15.2296Z" fill="#FFAC67"/>
<path d="M26.0554 15.3619C26.3799 14.9904 26.6732 14.6655 27.2071 14.6889C27.9261 14.7205 28.4971 15.2222 28.5265 15.9404C28.5445 16.3779 28.5469 16.8176 28.525 17.2547C28.4931 17.8903 28.0054 18.4065 27.4191 18.4608C26.6336 18.5336 26.0288 18.1935 25.9564 17.4786C25.887 16.7928 26.0016 16.0885 26.0554 15.3619Z" fill="#FFAC67"/>
<path d="M1.01061 17.8701C0.992185 17.7757 0.996938 17.6577 1.0282 17.5299C1.04774 17.6289 1.04077 17.7377 1.01061 17.8701Z" fill="#FBF5F0"/>
<path d="M1.10443 17.0318C1.09033 16.9907 1.09666 16.932 1.12472 16.8671C1.13925 16.9119 1.13206 16.963 1.10443 17.0318Z" fill="#FBF5F0"/>
</g>
<defs>
<clipPath id="clip0_1_120">
<rect width="185.352" height="39.4641" fill="white"/>
</clipPath>
</defs>
</svg>
