<svg width="573" height="122" viewBox="0 0 573 122" fill="none" xmlns="http://www.w3.org/2000/svg">
<g clip-path="url(#clip0_1_120)">
<path d="M148.872 87.955H153.917V93H148.872V87.955ZM153.917 87.955H158.962V93H153.917V87.955ZM158.962 87.955H164.007V93H158.962V87.955ZM158.962 82.91H164.007V87.955H158.962V82.91ZM158.962 77.865H164.007V82.91H158.962V77.865ZM158.962 72.82H164.007V77.865H158.962V72.82ZM158.962 67.775H164.007V72.82H158.962V67.775ZM158.962 62.73H164.007V67.775H158.962V62.73ZM158.962 57.685H164.007V62.73H158.962V57.685ZM158.962 52.64H164.007V57.685H158.962V52.64ZM158.962 47.595H164.007V52.64H158.962V47.595ZM153.917 47.595H158.962V52.64H153.917V47.595ZM153.917 42.55H158.962V47.595H153.917V42.55ZM148.872 47.595H153.917V52.64H148.872V47.595ZM148.872 52.64H153.917V57.685H148.872V52.64ZM148.872 57.685H153.917V62.73H148.872V57.685ZM148.872 62.73H153.917V67.775H148.872V62.73ZM148.872 67.775H153.917V72.82H148.872V67.775ZM148.872 72.82H153.917V77.865H148.872V72.82ZM148.872 77.865H153.917V82.91H148.872V77.865ZM148.872 82.91H153.917V87.955H148.872V82.91ZM153.917 82.91H158.962V87.955H153.917V82.91ZM153.917 77.865H158.962V82.91H153.917V77.865ZM153.917 72.82H158.962V77.865H153.917V72.82ZM148.872 42.55H153.917V47.595H148.872V42.55ZM158.962 42.55H164.007V47.595H158.962V42.55ZM153.917 52.64H158.962V57.685H153.917V52.64ZM153.917 57.685H158.962V62.73H153.917V57.685ZM153.917 62.73H158.962V67.775H153.917V62.73ZM153.917 67.775H158.962V72.82H153.917V67.775ZM148.872 17.3249H153.917V22.3699H148.872V17.3249ZM153.917 17.3249H158.962V22.3699H153.917V17.3249ZM158.962 17.3249H164.007V22.3699H158.962V17.3249ZM158.962 22.3699H164.007V27.4149H158.962V22.3699ZM158.962 27.4149H164.007V32.46H158.962V27.4149ZM158.962 32.46H164.007V37.505H158.962V32.46ZM158.962 37.505H164.007V42.55H158.962V37.505ZM153.917 37.505H158.962V42.55H153.917V37.505ZM153.917 32.46H158.962V37.505H153.917V32.46ZM153.917 27.4149H158.962V32.46H153.917V27.4149ZM153.917 22.3699H158.962V27.4149H153.917V22.3699ZM148.872 22.3699H153.917V27.4149H148.872V22.3699ZM148.872 27.4149H153.917V32.46H148.872V27.4149ZM148.872 32.46H153.917V37.505H148.872V32.46ZM148.872 37.505H153.917V42.55H148.872V37.505ZM224.597 17.3249V22.3699H219.552V17.3249H224.597ZM224.597 22.3699V27.4149H219.552V22.3699H224.597ZM224.597 27.4149V32.46H219.552V27.4149H224.597ZM224.597 32.46V37.505H219.552V32.46H224.597ZM224.597 37.505V42.55H219.552V37.505H224.597ZM224.597 42.55V47.595H219.552V42.55H224.597ZM224.597 82.91V87.955H219.552V82.91H224.597ZM224.597 87.955V93H219.552V87.955H224.597ZM219.552 87.955V93H214.507V87.955H219.552ZM214.507 17.3249V22.3699H209.462V17.3249H214.507ZM219.552 17.3249V22.3699H214.507V17.3249H219.552ZM219.552 22.3699V27.4149H214.507V22.3699H219.552ZM214.507 22.3699V27.4149H209.462V22.3699H214.507ZM214.507 27.4149V32.46H209.462V27.4149H214.507ZM214.507 32.46V37.505H209.462V32.46H214.507ZM219.552 37.505V42.55H214.507V37.505H219.552ZM219.552 32.46V37.505H214.507V32.46H219.552ZM219.552 27.4149V32.46H214.507V27.4149H219.552ZM204.417 37.505V42.55H199.372V37.505H204.417ZM199.372 37.505V42.55H194.327V37.505H199.372ZM194.327 37.505V42.55H189.282V37.505H194.327ZM189.282 37.505V42.55H184.237V37.505H189.282ZM184.237 42.55V47.595H179.192V42.55H184.237ZM189.282 42.55V47.595H184.237V42.55H189.282ZM194.327 42.55V47.595H189.282V42.55H194.327ZM199.372 42.55V47.595H194.327V42.55H199.372ZM204.417 42.55V47.595H199.372V42.55H204.417ZM209.462 42.55V47.595H204.417V42.55H209.462ZM219.552 42.55V47.595H214.507V42.55H219.552ZM214.507 72.82V77.865H209.462V72.82H214.507ZM209.462 82.91V87.955H204.417V82.91H209.462ZM209.462 77.865V82.91H204.417V77.865H209.462ZM204.417 87.955V93H199.372V87.955H204.417ZM199.372 87.955V93H194.327V87.955H199.372ZM194.327 87.955V93H189.282V87.955H194.327ZM189.282 87.955V93H184.237V87.955H189.282ZM194.327 82.91V87.955H189.282V82.91H194.327ZM199.372 82.91V87.955H194.327V82.91H199.372ZM204.417 82.91V87.955H199.372V82.91H204.417ZM189.282 82.91V87.955H184.237V82.91H189.282ZM184.237 82.91V87.955H179.192V82.91H184.237ZM189.282 77.865V82.91H184.237V77.865H189.282ZM194.327 77.865V82.91H189.282V77.865H194.327ZM184.237 77.865V82.91H179.192V77.865H184.237ZM179.192 77.865V82.91H174.147V77.865H179.192ZM179.192 72.82V77.865H174.147V72.82H179.192ZM184.237 67.775V72.82H179.192V67.775H184.237ZM184.237 72.82V77.865H179.192V72.82H184.237ZM189.282 72.82V77.865H184.237V72.82H189.282ZM179.192 67.775V72.82H174.147V67.775H179.192ZM179.192 62.73V67.775H174.147V62.73H179.192ZM184.237 62.73V67.775H179.192V62.73H184.237ZM184.237 57.685V62.73H179.192V57.685H184.237ZM184.237 52.64V57.685H179.192V52.64H184.237ZM179.192 52.64V57.685H174.147V52.64H179.192ZM179.192 47.595V52.64H174.147V47.595H179.192ZM179.192 57.685V62.73H174.147V57.685H179.192ZM189.282 62.73V67.775H184.237V62.73H189.282ZM189.282 67.775V72.82H184.237V67.775H189.282ZM189.282 57.685V62.73H184.237V57.685H189.282ZM189.282 52.64V57.685H184.237V52.64H189.282ZM189.282 47.595V52.64H184.237V47.595H189.282ZM194.327 47.595V52.64H189.282V47.595H194.327ZM184.237 47.595V52.64H179.192V47.595H184.237ZM209.462 47.595V52.64H204.417V47.595H209.462ZM204.417 47.595V52.64H199.372V47.595H204.417ZM199.372 47.595V52.64H194.327V47.595H199.372ZM204.417 77.865V82.91H199.372V77.865H204.417ZM199.372 77.865V82.91H194.327V77.865H199.372ZM214.507 87.955V93H209.462V87.955H214.507ZM214.507 82.91V87.955H209.462V82.91H214.507ZM214.507 77.865V82.91H209.462V77.865H214.507ZM219.552 77.865V82.91H214.507V77.865H219.552ZM219.552 82.91V87.955H214.507V82.91H219.552ZM219.552 72.82V77.865H214.507V72.82H219.552ZM214.507 67.775V72.82H209.462V67.775H214.507ZM214.507 62.73V67.775H209.462V62.73H214.507ZM214.507 57.685V62.73H209.462V57.685H214.507ZM214.507 52.64V57.685H209.462V52.64H214.507ZM214.507 47.595V52.64H209.462V47.595H214.507ZM214.507 42.55V47.595H209.462V42.55H214.507ZM214.507 37.505V42.55H209.462V37.505H214.507ZM219.552 47.595V52.64H214.507V47.595H219.552ZM219.552 52.64V57.685H214.507V52.64H219.552ZM219.552 57.685V62.73H214.507V57.685H219.552ZM219.552 62.73V67.775H214.507V62.73H219.552ZM219.552 67.775V72.82H214.507V67.775H219.552ZM224.597 72.82V77.865H219.552V72.82H224.597ZM224.597 77.865V82.91H219.552V77.865H224.597ZM224.597 67.775V72.82H219.552V67.775H224.597ZM224.597 62.73V67.775H219.552V62.73H224.597ZM224.597 57.685V62.73H219.552V57.685H224.597ZM224.597 52.64V57.685H219.552V52.64H224.597ZM224.597 47.595V52.64H219.552V47.595H224.597ZM204.417 72.82H209.462V77.865H204.417V72.82ZM204.417 37.505H209.462V42.55H204.417V37.505ZM244.762 37.505H249.807V42.55H244.762V37.505ZM249.807 37.505H254.852V42.55H249.807V37.505ZM254.852 37.505H259.897V42.55H254.852V37.505ZM259.897 37.505H264.942V42.55H259.897V37.505ZM264.942 37.505H269.987V42.55H264.942V37.505ZM269.987 37.505H275.032V42.55H269.987V37.505ZM275.032 42.55H280.077V47.595H275.032V42.55ZM269.987 42.55H275.032V47.595H269.987V42.55ZM264.942 42.55H269.987V47.595H264.942V42.55ZM259.897 42.55H264.942V47.595H259.897V42.55ZM254.852 42.55H259.897V47.595H254.852V42.55ZM249.807 42.55H254.852V47.595H249.807V42.55ZM244.762 42.55H249.807V47.595H244.762V42.55ZM239.717 42.55H244.762V47.595H239.717V42.55ZM239.717 47.595H244.762V52.64H239.717V47.595ZM244.762 47.595H249.807V52.64H244.762V47.595ZM234.672 47.595H239.717V52.64H234.672V47.595ZM234.672 52.64H239.717V57.685H234.672V52.64ZM234.672 57.685H239.717V62.73H234.672V57.685ZM239.717 57.685H244.762V62.73H239.717V57.685ZM244.762 57.685H249.807V62.73H244.762V57.685ZM244.762 52.64H249.807V57.685H244.762V52.64ZM239.717 52.64H244.762V57.685H239.717V52.64ZM239.717 62.73H244.762V67.775H239.717V62.73ZM239.717 67.775H244.762V72.82H239.717V67.775ZM239.717 72.82H244.762V77.865H239.717V72.82ZM234.672 72.82H239.717V77.865H234.672V72.82ZM234.672 77.865H239.717V82.91H234.672V77.865ZM234.672 67.775H239.717V72.82H234.672V67.775ZM234.672 62.73H239.717V67.775H234.672V62.73ZM244.762 62.73H249.807V67.775H244.762V62.73ZM244.762 67.775H249.807V72.82H244.762V67.775ZM244.762 72.82H249.807V77.865H244.762V72.82ZM244.762 77.865H249.807V82.91H244.762V77.865ZM239.717 77.865H244.762V82.91H239.717V77.865ZM239.717 82.91H244.762V87.955H239.717V82.91ZM244.762 82.91H249.807V87.955H244.762V82.91ZM249.807 82.91H254.852V87.955H249.807V82.91ZM249.807 77.865H254.852V82.91H249.807V77.865ZM244.762 87.955H249.807V93H244.762V87.955ZM249.807 87.955H254.852V93H249.807V87.955ZM254.852 87.955H259.897V93H254.852V87.955ZM259.897 87.955H264.942V93H259.897V87.955ZM264.942 87.955H269.987V93H264.942V87.955ZM269.987 87.955H275.032V93H269.987V87.955ZM264.942 82.91H269.987V87.955H264.942V82.91ZM259.897 82.91H264.942V87.955H259.897V82.91ZM254.852 82.91H259.897V87.955H254.852V82.91ZM269.987 82.91H275.032V87.955H269.987V82.91ZM275.032 82.91H280.077V87.955H275.032V82.91ZM269.987 77.865H275.032V82.91H269.987V77.865ZM264.942 77.865H269.987V82.91H264.942V77.865ZM275.032 77.865H280.077V82.91H275.032V77.865ZM280.077 77.865H285.122V82.91H280.077V77.865ZM275.032 52.64H280.077V57.685H275.032V52.64ZM280.077 52.64H285.122V57.685H280.077V52.64ZM280.077 47.595H285.122V52.64H280.077V47.595ZM269.987 52.64H275.032V57.685H269.987V52.64ZM269.987 47.595H275.032V52.64H269.987V47.595ZM275.032 47.595H280.077V52.64H275.032V47.595ZM254.852 77.865H259.897V82.91H254.852V77.865ZM259.897 77.865H264.942V82.91H259.897V77.865ZM280.077 57.685H285.122V62.73H280.077V57.685ZM275.032 57.685H280.077V62.73H275.032V57.685ZM269.987 57.685H275.032V62.73H269.987V57.685ZM254.852 62.73H259.897V67.775H254.852V62.73ZM259.897 62.73H264.942V67.775H259.897V62.73ZM264.942 62.73H269.987V67.775H264.942V62.73ZM269.987 62.73H275.032V67.775H269.987V62.73ZM275.032 62.73H280.077V67.775H275.032V62.73ZM280.077 62.73H285.122V67.775H280.077V62.73ZM249.807 62.73H254.852V67.775H249.807V62.73ZM249.807 47.595H254.852V52.64H249.807V47.595ZM254.852 47.595H259.897V52.64H254.852V47.595ZM259.897 47.595H264.942V52.64H259.897V47.595ZM264.942 47.595H269.987V52.64H264.942V47.595ZM280.077 67.775H285.122V72.82H280.077V67.775ZM275.032 67.775H280.077V72.82H275.032V67.775ZM264.942 67.775H269.987V72.82H264.942V67.775ZM259.897 67.775H264.942V72.82H259.897V67.775ZM254.852 67.775H259.897V72.82H254.852V67.775ZM249.807 67.775H254.852V72.82H249.807V67.775ZM269.987 67.775H275.032V72.82H269.987V67.775ZM305.287 37.505H310.332V42.55H305.287V37.505ZM300.242 42.55H305.287V47.595H300.242V42.55ZM300.242 47.595H305.287V52.64H300.242V47.595ZM295.197 42.55H300.242V47.595H295.197V42.55ZM295.197 37.505H300.242V42.55H295.197V37.505ZM300.242 37.505H305.287V42.55H300.242V37.505ZM300.242 52.64H305.287V57.685H300.242V52.64ZM295.197 52.64H300.242V57.685H295.197V52.64ZM295.197 57.685H300.242V62.73H295.197V57.685ZM295.197 47.595H300.242V52.64H295.197V47.595ZM295.197 62.73H300.242V67.775H295.197V62.73ZM295.197 67.775H300.242V72.82H295.197V67.775ZM295.197 72.82H300.242V77.865H295.197V72.82ZM295.197 77.865H300.242V82.91H295.197V77.865ZM295.197 82.91H300.242V87.955H295.197V82.91ZM300.242 82.91H305.287V87.955H300.242V82.91ZM305.287 82.91H310.332V87.955H305.287V82.91ZM305.287 87.955H310.332V93H305.287V87.955ZM300.242 87.955H305.287V93H300.242V87.955ZM295.197 87.955H300.242V93H295.197V87.955ZM305.287 77.865H310.332V82.91H305.287V77.865ZM305.287 72.82H310.332V77.865H305.287V72.82ZM305.287 67.775H310.332V72.82H305.287V67.775ZM305.287 62.73H310.332V67.775H305.287V62.73ZM305.287 57.685H310.332V62.73H305.287V57.685ZM305.287 52.64H310.332V57.685H305.287V52.64ZM305.287 47.595H310.332V52.64H305.287V47.595ZM305.287 42.55H310.332V47.595H305.287V42.55ZM300.242 57.685H305.287V62.73H300.242V57.685ZM300.242 67.775H305.287V72.82H300.242V67.775ZM300.242 72.82H305.287V77.865H300.242V72.82ZM300.242 77.865H305.287V82.91H300.242V77.865ZM300.242 62.73H305.287V67.775H300.242V62.73ZM330.512 87.955H335.557V93H330.512V87.955ZM335.557 87.955H340.602V93H335.557V87.955ZM335.557 82.91H340.602V87.955H335.557V82.91ZM335.557 77.865H340.602V82.91H335.557V77.865ZM335.557 72.82H340.602V77.865H335.557V72.82ZM340.602 72.82H345.647V77.865H340.602V72.82ZM340.602 67.775H345.647V72.82H340.602V67.775ZM340.602 77.865H345.647V82.91H340.602V77.865ZM340.602 82.91H345.647V87.955H340.602V82.91ZM340.602 87.955H345.647V93H340.602V87.955ZM330.512 82.91H335.557V87.955H330.512V82.91ZM330.512 77.865H335.557V82.91H330.512V77.865ZM330.512 72.82H335.557V77.865H330.512V72.82ZM330.512 67.775H335.557V72.82H330.512V67.775ZM330.512 62.73H335.557V67.775H330.512V62.73ZM330.512 57.685H335.557V62.73H330.512V57.685ZM330.512 52.64H335.557V57.685H330.512V52.64ZM330.512 47.595H335.557V52.64H330.512V47.595ZM330.512 42.55H335.557V47.595H330.512V42.55ZM325.467 42.55H330.512V47.595H325.467V42.55ZM320.422 42.55H325.467V47.595H320.422V42.55ZM335.557 47.595H340.602V52.64H335.557V47.595ZM335.557 52.64H340.602V57.685H335.557V52.64ZM335.557 57.685H340.602V62.73H335.557V57.685ZM335.557 62.73H340.602V67.775H335.557V62.73ZM335.557 67.775H340.602V72.82H335.557V67.775ZM340.602 62.73H345.647V67.775H340.602V62.73ZM340.602 57.685H345.647V62.73H340.602V57.685ZM340.602 52.64H345.647V57.685H340.602V52.64ZM340.602 47.595H345.647V52.64H340.602V47.595ZM335.557 42.55H340.602V47.595H335.557V42.55ZM330.512 37.505H335.557V42.55H330.512V37.505ZM325.467 37.505H330.512V42.55H325.467V37.505ZM320.422 37.505H325.467V42.55H320.422V37.505ZM315.377 37.505H320.422V42.55H315.377V37.505ZM315.377 42.55H320.422V47.595H315.377V42.55ZM310.332 42.55H315.377V47.595H310.332V42.55ZM310.332 47.595H315.377V52.64H310.332V47.595ZM315.377 47.595H320.422V52.64H315.377V47.595ZM320.422 47.595H325.467V52.64H320.422V47.595ZM325.467 47.595H330.512V52.64H325.467V47.595ZM310.332 52.64H315.377V57.685H310.332V52.64ZM375.902 22.3699H380.947V27.4149H375.902V22.3699ZM375.902 27.4149H380.947V32.46H375.902V27.4149ZM370.857 27.4149H375.902V32.46H370.857V27.4149ZM375.902 32.46H380.947V37.505H375.902V32.46ZM370.857 32.46H375.902V37.505H370.857V32.46ZM365.812 32.46H370.857V37.505H365.812V32.46ZM365.812 37.505H370.857V42.55H365.812V37.505ZM370.857 37.505H375.902V42.55H370.857V37.505ZM375.902 37.505H380.947V42.55H375.902V37.505ZM375.902 42.55H380.947V47.595H375.902V42.55ZM370.857 42.55H375.902V47.595H370.857V42.55ZM365.812 42.55H370.857V47.595H365.812V42.55ZM360.767 42.55H365.812V47.595H360.767V42.55ZM355.722 42.55H360.767V47.595H355.722V42.55ZM355.722 47.595H360.767V52.64H355.722V47.595ZM360.767 47.595H365.812V52.64H360.767V47.595ZM365.812 47.595H370.857V52.64H365.812V47.595ZM370.857 47.595H375.902V52.64H370.857V47.595ZM375.902 47.595H380.947V52.64H375.902V47.595ZM380.947 47.595H385.992V52.64H380.947V47.595ZM385.992 47.595H391.037V52.64H385.992V47.595ZM391.037 47.595H396.082V52.64H391.037V47.595ZM391.037 42.55H396.082V47.595H391.037V42.55ZM385.992 42.55H391.037V47.595H385.992V42.55ZM380.947 42.55H385.992V47.595H380.947V42.55ZM365.812 52.64H370.857V57.685H365.812V52.64ZM370.857 52.64H375.902V57.685H370.857V52.64ZM375.902 52.64H380.947V57.685H375.902V52.64ZM375.902 57.685H380.947V62.73H375.902V57.685ZM375.902 62.73H380.947V67.775H375.902V62.73ZM375.902 67.775H380.947V72.82H375.902V67.775ZM375.902 72.82H380.947V77.865H375.902V72.82ZM370.857 72.82H375.902V77.865H370.857V72.82ZM370.857 67.775H375.902V72.82H370.857V67.775ZM370.857 62.73H375.902V67.775H370.857V62.73ZM370.857 57.685H375.902V62.73H370.857V57.685ZM365.812 57.685H370.857V62.73H365.812V57.685ZM365.812 62.73H370.857V67.775H365.812V62.73ZM365.812 67.775H370.857V72.82H365.812V67.775ZM365.812 72.82H370.857V77.865H365.812V72.82ZM365.812 77.865H370.857V82.91H365.812V77.865ZM370.857 77.865H375.902V82.91H370.857V77.865ZM375.902 77.865H380.947V82.91H375.902V77.865ZM380.947 77.865H385.992V82.91H380.947V77.865ZM380.947 82.91H385.992V87.955H380.947V82.91ZM375.902 82.91H380.947V87.955H375.902V82.91ZM370.857 82.91H375.902V87.955H370.857V82.91ZM385.992 82.91H391.037V87.955H385.992V82.91ZM391.037 82.91H396.082V87.955H391.037V82.91ZM391.037 87.955H396.082V93H391.037V87.955ZM385.992 87.955H391.037V93H385.992V87.955ZM380.947 87.955H385.992V93H380.947V87.955ZM375.902 87.955H380.947V93H375.902V87.955ZM416.228 37.505H421.273V42.55H416.228V37.505ZM421.273 37.505H426.318V42.55H421.273V37.505ZM426.318 37.505H431.363V42.55H426.318V37.505ZM431.363 37.505H436.408V42.55H431.363V37.505ZM436.408 37.505H441.453V42.55H436.408V37.505ZM441.453 37.505H446.498V42.55H441.453V37.505ZM446.498 42.55H451.543V47.595H446.498V42.55ZM441.453 42.55H446.498V47.595H441.453V42.55ZM436.408 42.55H441.453V47.595H436.408V42.55ZM431.363 42.55H436.408V47.595H431.363V42.55ZM426.318 42.55H431.363V47.595H426.318V42.55ZM421.273 42.55H426.318V47.595H421.273V42.55ZM416.228 42.55H421.273V47.595H416.228V42.55ZM411.183 42.55H416.228V47.595H411.183V42.55ZM411.183 47.595H416.228V52.64H411.183V47.595ZM416.228 47.595H421.273V52.64H416.228V47.595ZM406.138 47.595H411.183V52.64H406.138V47.595ZM406.138 52.64H411.183V57.685H406.138V52.64ZM406.138 57.685H411.183V62.73H406.138V57.685ZM411.183 57.685H416.228V62.73H411.183V57.685ZM416.228 57.685H421.273V62.73H416.228V57.685ZM416.228 52.64H421.273V57.685H416.228V52.64ZM411.183 52.64H416.228V57.685H411.183V52.64ZM411.183 62.73H416.228V67.775H411.183V62.73ZM411.183 67.775H416.228V72.82H411.183V67.775ZM411.183 72.82H416.228V77.865H411.183V72.82ZM406.138 72.82H411.183V77.865H406.138V72.82ZM406.138 77.865H411.183V82.91H406.138V77.865ZM406.138 67.775H411.183V72.82H406.138V67.775ZM406.138 62.73H411.183V67.775H406.138V62.73ZM416.228 62.73H421.273V67.775H416.228V62.73ZM416.228 67.775H421.273V72.82H416.228V67.775ZM416.228 72.82H421.273V77.865H416.228V72.82ZM416.228 77.865H421.273V82.91H416.228V77.865ZM411.183 77.865H416.228V82.91H411.183V77.865ZM411.183 82.91H416.228V87.955H411.183V82.91ZM416.228 82.91H421.273V87.955H416.228V82.91ZM421.273 82.91H426.318V87.955H421.273V82.91ZM421.273 77.865H426.318V82.91H421.273V77.865ZM416.228 87.955H421.273V93H416.228V87.955ZM421.273 87.955H426.318V93H421.273V87.955ZM426.318 87.955H431.363V93H426.318V87.955ZM431.363 87.955H436.408V93H431.363V87.955ZM436.408 87.955H441.453V93H436.408V87.955ZM441.453 87.955H446.498V93H441.453V87.955ZM436.408 82.91H441.453V87.955H436.408V82.91ZM431.363 82.91H436.408V87.955H431.363V82.91ZM426.318 82.91H431.363V87.955H426.318V82.91ZM441.453 82.91H446.498V87.955H441.453V82.91ZM446.498 82.91H451.543V87.955H446.498V82.91ZM441.453 77.865H446.498V82.91H441.453V77.865ZM436.408 77.865H441.453V82.91H436.408V77.865ZM446.498 77.865H451.543V82.91H446.498V77.865ZM451.543 77.865H456.588V82.91H451.543V77.865ZM446.498 52.64H451.543V57.685H446.498V52.64ZM451.543 52.64H456.588V57.685H451.543V52.64ZM451.543 47.595H456.588V52.64H451.543V47.595ZM441.453 52.64H446.498V57.685H441.453V52.64ZM441.453 47.595H446.498V52.64H441.453V47.595ZM446.498 47.595H451.543V52.64H446.498V47.595ZM426.318 77.865H431.363V82.91H426.318V77.865ZM431.363 77.865H436.408V82.91H431.363V77.865ZM451.543 57.685H456.588V62.73H451.543V57.685ZM446.498 57.685H451.543V62.73H446.498V57.685ZM441.453 57.685H446.498V62.73H441.453V57.685ZM426.318 62.73H431.363V67.775H426.318V62.73ZM431.363 62.73H436.408V67.775H431.363V62.73ZM436.408 62.73H441.453V67.775H436.408V62.73ZM441.453 62.73H446.498V67.775H441.453V62.73ZM446.498 62.73H451.543V67.775H446.498V62.73ZM451.543 62.73H456.588V67.775H451.543V62.73ZM421.273 62.73H426.318V67.775H421.273V62.73ZM421.273 47.595H426.318V52.64H421.273V47.595ZM426.318 47.595H431.363V52.64H426.318V47.595ZM431.363 47.595H436.408V52.64H431.363V47.595ZM436.408 47.595H441.453V52.64H436.408V47.595ZM451.543 67.775H456.588V72.82H451.543V67.775ZM446.498 67.775H451.543V72.82H446.498V67.775ZM436.408 67.775H441.453V72.82H436.408V67.775ZM431.363 67.775H436.408V72.82H431.363V67.775ZM426.318 67.775H431.363V72.82H426.318V67.775ZM421.273 67.775H426.318V72.82H421.273V67.775ZM441.453 67.775H446.498V72.82H441.453V67.775ZM486.843 22.3699H491.888V27.4149H486.843V22.3699ZM486.843 27.4149H491.888V32.46H486.843V27.4149ZM481.798 27.4149H486.843V32.46H481.798V27.4149ZM486.843 32.46H491.888V37.505H486.843V32.46ZM481.798 32.46H486.843V37.505H481.798V32.46ZM476.753 32.46H481.798V37.505H476.753V32.46ZM476.753 37.505H481.798V42.55H476.753V37.505ZM481.798 37.505H486.843V42.55H481.798V37.505ZM486.843 37.505H491.888V42.55H486.843V37.505ZM486.843 42.55H491.888V47.595H486.843V42.55ZM481.798 42.55H486.843V47.595H481.798V42.55ZM476.753 42.55H481.798V47.595H476.753V42.55ZM471.708 42.55H476.753V47.595H471.708V42.55ZM466.663 42.55H471.708V47.595H466.663V42.55ZM466.663 47.595H471.708V52.64H466.663V47.595ZM471.708 47.595H476.753V52.64H471.708V47.595ZM476.753 47.595H481.798V52.64H476.753V47.595ZM481.798 47.595H486.843V52.64H481.798V47.595ZM486.843 47.595H491.888V52.64H486.843V47.595ZM491.888 47.595H496.933V52.64H491.888V47.595ZM496.933 47.595H501.978V52.64H496.933V47.595ZM501.978 47.595H507.023V52.64H501.978V47.595ZM501.978 42.55H507.023V47.595H501.978V42.55ZM496.933 42.55H501.978V47.595H496.933V42.55ZM491.888 42.55H496.933V47.595H491.888V42.55ZM476.753 52.64H481.798V57.685H476.753V52.64ZM481.798 52.64H486.843V57.685H481.798V52.64ZM486.843 52.64H491.888V57.685H486.843V52.64ZM486.843 57.685H491.888V62.73H486.843V57.685ZM486.843 62.73H491.888V67.775H486.843V62.73ZM486.843 67.775H491.888V72.82H486.843V67.775ZM486.843 72.82H491.888V77.865H486.843V72.82ZM481.798 72.82H486.843V77.865H481.798V72.82ZM481.798 67.775H486.843V72.82H481.798V67.775ZM481.798 62.73H486.843V67.775H481.798V62.73ZM481.798 57.685H486.843V62.73H481.798V57.685ZM476.753 57.685H481.798V62.73H476.753V57.685ZM476.753 62.73H481.798V67.775H476.753V62.73ZM476.753 67.775H481.798V72.82H476.753V67.775ZM476.753 72.82H481.798V77.865H476.753V72.82ZM476.753 77.865H481.798V82.91H476.753V77.865ZM481.798 77.865H486.843V82.91H481.798V77.865ZM486.843 77.865H491.888V82.91H486.843V77.865ZM491.888 77.865H496.933V82.91H491.888V77.865ZM491.888 82.91H496.933V87.955H491.888V82.91ZM486.843 82.91H491.888V87.955H486.843V82.91ZM481.798 82.91H486.843V87.955H481.798V82.91ZM496.933 82.91H501.978V87.955H496.933V82.91ZM501.978 82.91H507.023V87.955H501.978V82.91ZM501.978 87.955H507.023V93H501.978V87.955ZM496.933 87.955H501.978V93H496.933V87.955ZM491.888 87.955H496.933V93H491.888V87.955ZM486.843 87.955H491.888V93H486.843V87.955ZM517.079 37.505H522.124V42.55H517.079V37.505ZM522.124 37.505H527.169V42.55H522.124V37.505ZM522.124 42.55H527.169V47.595H522.124V42.55ZM527.169 42.55H532.214V47.595H527.169V42.55ZM527.169 47.595H532.214V52.64H527.169V47.595ZM527.169 52.64H532.214V57.685H527.169V52.64ZM527.169 37.505H532.214V42.55H527.169V37.505ZM517.079 42.55H522.124V47.595H517.079V42.55ZM517.079 47.595H522.124V52.64H517.079V47.595ZM517.079 52.64H522.124V57.685H517.079V52.64ZM517.079 57.685H522.124V62.73H517.079V57.685ZM522.124 57.685H527.169V62.73H522.124V57.685ZM522.124 52.64H527.169V57.685H522.124V52.64ZM522.124 47.595H527.169V52.64H522.124V47.595ZM527.169 57.685H532.214V62.73H527.169V57.685ZM527.169 62.73H532.214V67.775H527.169V62.73ZM522.124 62.73H527.169V67.775H522.124V62.73ZM517.079 62.73H522.124V67.775H517.079V62.73ZM517.079 67.775H522.124V72.82H517.079V67.775ZM522.124 67.775H527.169V72.82H522.124V67.775ZM527.169 67.775H532.214V72.82H527.169V67.775ZM532.214 67.775H537.259V72.82H532.214V67.775ZM562.484 37.505H567.529V42.55H562.484V37.505ZM557.439 37.505H562.484V42.55H557.439V37.505ZM557.439 42.55H562.484V47.595H557.439V42.55ZM552.394 42.55H557.439V47.595H552.394V42.55ZM552.394 37.505H557.439V42.55H552.394V37.505ZM552.394 47.595H557.439V52.64H552.394V47.595ZM552.394 52.64H557.439V57.685H552.394V52.64ZM552.394 57.685H557.439V62.73H552.394V57.685ZM552.394 62.73H557.439V67.775H552.394V62.73ZM557.439 62.73H562.484V67.775H557.439V62.73ZM557.439 67.775H562.484V72.82H557.439V67.775ZM562.484 62.73H567.529V67.775H562.484V62.73ZM562.484 57.685H567.529V62.73H562.484V57.685ZM562.484 52.64H567.529V57.685H562.484V52.64ZM562.484 47.595H567.529V52.64H562.484V47.595ZM562.484 42.55H567.529V47.595H562.484V42.55ZM557.439 52.64H562.484V57.685H557.439V52.64ZM557.439 57.685H562.484V62.73H557.439V57.685ZM557.439 47.595H562.484V52.64H557.439V47.595ZM562.484 67.775H567.529V72.82H562.484V67.775ZM557.439 72.82H562.484V77.865H557.439V72.82ZM552.394 67.775H557.439V72.82H552.394V67.775ZM552.394 77.865H557.439V82.91H552.394V77.865ZM547.349 77.865H552.394V82.91H547.349V77.865ZM547.349 82.91H552.394V87.955H547.349V82.91ZM542.304 82.91H547.349V87.955H542.304V82.91ZM542.304 87.955H547.349V93H542.304V87.955ZM537.259 87.955H542.304V93H537.259V87.955ZM537.259 93H542.304V98.045H537.259V93ZM532.214 93H537.259V98.045H532.214V93ZM532.214 98.045H537.259V103.09H532.214V98.045ZM527.169 98.045H532.214V103.09H527.169V98.045ZM527.169 103.09H532.214V108.135H527.169V103.09ZM522.124 103.09H527.169V108.135H522.124V103.09ZM517.079 103.09H522.124V108.135H517.079V103.09ZM517.079 98.045H522.124V103.09H517.079V98.045ZM522.124 98.045H527.169V103.09H522.124V98.045ZM522.124 93H527.169V98.045H522.124V93ZM527.169 93H532.214V98.045H527.169V93ZM527.169 87.955H532.214V93H527.169V87.955ZM532.214 87.955H537.259V93H532.214V87.955ZM532.214 82.91H537.259V87.955H532.214V82.91ZM532.214 77.865H537.259V82.91H532.214V77.865ZM527.169 77.865H532.214V82.91H527.169V77.865ZM527.169 72.82H532.214V77.865H527.169V72.82ZM522.124 72.82H527.169V77.865H522.124V72.82ZM532.214 72.82H537.259V77.865H532.214V72.82ZM537.259 77.865H542.304V82.91H537.259V77.865ZM537.259 82.91H542.304V87.955H537.259V82.91ZM542.304 77.865H547.349V82.91H542.304V77.865ZM547.349 72.82H552.394V77.865H547.349V72.82ZM552.394 72.82H557.439V77.865H552.394V72.82ZM542.304 72.82H547.349V77.865H542.304V72.82ZM547.349 67.775H552.394V72.82H547.349V67.775ZM537.259 72.82H542.304V77.865H537.259V72.82Z" fill="white"/>
<path d="M6.51031 40.2342C6.52728 40.101 6.54425 39.9679 6.6408 39.6668C7.73351 37.314 8.6938 35.1022 9.78243 32.9555C10.3125 31.9104 11.0821 30.9868 11.7622 30.1288C11.7781 30.3944 11.8033 30.5466 11.7682 30.6834C9.60051 39.1369 8.72681 47.7299 9.82796 56.3852C10.4152 61.0007 11.4038 65.6432 12.8744 70.0524C16.2009 80.0264 22.218 88.3274 29.9682 95.3719C30.7485 96.081 31.8499 96.601 32.8855 96.8266C34.4404 97.1652 36.1191 96.1214 36.8425 94.7094C37.6801 93.0744 37.4422 91.3829 36.1766 90.021C33.613 87.2621 30.8647 84.6511 28.5204 81.7171C23.8146 75.8278 20.5785 69.174 18.9079 61.7776C17.5431 55.7348 17.3041 49.6556 17.8505 43.4994C18.5372 35.7626 20.4851 28.3746 23.8518 21.394C24.8641 19.2952 25.1545 17.3978 24.0354 15.2883C27.0706 13.1386 29.9848 10.9933 33.0089 9.01594C34.772 7.86307 36.711 6.97902 38.5708 5.97403C39.4864 5.63443 40.4019 5.29483 41.5039 4.87639C42.3813 4.60802 43.0659 4.3894 43.7644 4.23377C47.8215 3.32986 51.8819 2.44077 55.9411 1.54668C56.102 1.5104 56.263 1.47412 56.6185 1.38045C62.356 1.19745 67.8929 1.19477 73.3814 2.15472C73.5246 2.23606 73.6678 2.3174 74.0111 2.42266C75.9713 2.93918 77.7315 3.43177 79.431 3.9998C77.2231 5.69944 76.8118 8.02929 78.3164 10.2839C83.5183 18.0787 87.9594 26.242 90.5816 35.3029C92.7516 42.8014 93.5756 50.4386 92.803 58.2064C92.1601 64.6689 90.3827 70.8901 88.5658 77.1056C85.4243 87.8525 86.6705 97.9344 93.4557 107.088C94.1377 108.008 94.8022 108.941 95.4385 109.966C94.0543 110.984 92.7066 111.903 91.3588 112.823C91.2064 112.888 91.0539 112.952 90.7517 113.095C90.2106 113.272 89.8194 113.372 89.3662 113.37C89.2327 113.038 89.1326 112.813 89.0937 112.579C88.3352 107.993 86.9262 103.631 84.1521 99.8612C79.5999 93.676 73.2601 92.6458 66.7659 96.3945C62.218 99.0196 60.7283 103.49 60.3439 108.398C60.0318 112.384 60.6906 116.29 61.6186 120.131C59.8458 120.054 58.2074 119.977 56.5691 119.9C56.4287 119.888 56.2883 119.876 55.92 119.851C53.2406 119.405 50.7891 118.973 48.3732 118.454C50.4516 114.755 52.6909 111.238 54.4876 107.507C56.6932 102.927 57.883 98.0249 57.3866 92.8805C57.1853 90.7938 57.0697 88.4256 55.2384 87.0861C51.3594 84.2489 47.7532 81.1702 44.5699 77.5537C40.3284 72.735 37.0224 67.3928 34.9735 61.3072C33.0949 55.7276 32.6432 50.011 33.2511 44.148C33.8566 38.3085 35.1768 32.721 38.151 27.6136C39.9641 24.5002 42.3706 21.9483 45.7072 20.4508C50.876 18.1309 56.1034 18.5787 61.2314 20.5191C65.9821 22.3168 68.472 26.2751 70.2544 30.7495C70.7714 32.0473 71.0509 33.4399 71.4392 34.789C71.3031 34.8737 71.167 34.9585 71.0309 35.0432C69.3971 34.2509 67.7712 33.4419 66.1279 32.67C63.0025 31.2018 59.7614 30.0032 56.3 29.8066C51.0145 29.5064 46.7188 31.5327 43.4218 35.7265C39.4754 40.7462 37.8806 46.3261 39.0184 52.6666C40.067 58.5101 42.6614 63.6402 46.0796 68.4084C50.3468 74.361 55.6083 79.2342 62.2372 82.3914C68.9086 85.5688 76.016 85.5966 80.983 78.9486C84.1877 74.6593 85.0425 69.9339 83.076 64.8603C82.2169 62.6438 80.232 61.8033 77.9914 62.5518C75.993 63.2194 74.9445 65.2655 75.377 67.406C75.6044 68.5313 75.733 69.703 75.7031 70.8485C75.6274 73.7457 72.9879 76.3096 70.2065 76.2476C66.8325 76.1724 64.0916 74.4256 61.5268 72.5516C55.586 68.2112 51.1289 62.6058 48.3724 55.7652C46.4281 50.9402 46.0287 46.1436 49.1822 41.5089C51.1323 38.6429 54.3158 37.1604 57.5732 38.3248C60.8842 39.5084 64.0712 41.0389 67.3139 42.4141C68.8224 43.0538 70.2925 43.8284 71.8548 44.2867C74.1404 44.9573 76.5749 43.9223 77.9261 41.9777C79.4058 39.848 79.7547 37.4945 79.5253 34.9553C78.8269 27.2248 75.464 20.823 69.4902 16.0076C64.3157 11.8365 58.0878 10.6053 51.52 10.8462C43.0698 11.1561 36.5412 15.0759 32.0599 21.9836C25.4018 32.2467 23.7861 43.7836 25.3166 55.6857C26.8044 67.2556 32.4208 76.9506 40.4607 85.2482C42.8728 87.7375 45.6387 89.882 48.2002 92.2306C48.6646 92.6564 49.1685 93.282 49.2261 93.8582C49.3446 95.0462 49.2964 96.2831 49.1014 97.4644C48.3407 102.072 46.2295 106.15 43.9999 110.183C42.9231 112.13 41.0954 113.784 41.3283 116.316C40.5198 116.114 39.8188 115.926 39.1177 115.737C38.9846 115.646 38.8515 115.556 38.5666 115.38C37.2852 114.655 36.1556 114.015 35.0254 113.257C35.8059 110.077 35.126 108.716 32.2385 106.953C24.8508 102.444 19.035 96.467 15.4581 88.4947C13.7548 84.6983 12.1115 83.9021 8.29162 85.1917C7.94329 84.4943 7.6104 83.9001 7.38474 83.2677C6.41584 80.5521 5.47848 77.8252 4.52962 75.1024C4.37984 74.3718 4.23006 73.6412 4.00234 72.7117C3.84078 72.0439 3.70647 71.5778 3.68141 71.1058C3.44367 66.6297 3.22451 62.1527 3 57.6759C3.00538 57.5299 3.01076 57.3839 3.02579 57.0102C3.04115 56.2937 3.04686 55.805 3.12424 55.243C3.21745 54.8337 3.239 54.4974 3.28204 54.0414C3.31943 53.516 3.33532 53.1105 3.41417 52.6507C3.49927 52.4389 3.5214 52.2815 3.56594 52.0005C3.7043 50.8012 3.82026 49.7254 3.93622 48.6497C4.12989 48.0363 4.32355 47.4229 4.5918 46.621C5.28102 44.3664 5.89566 42.3003 6.51031 40.2342ZM62.5605 47.0347C60.1225 46.4343 58.4177 47.075 57.3849 48.9798C56.4032 50.7903 56.7755 52.2714 58.6493 54.113C59.7171 55.1626 60.8321 56.1751 61.8041 57.3087C63.2228 58.9633 63.6221 60.9364 63.569 63.1143C63.5132 65.4013 65.2587 67.3482 67.1893 67.511C69.3483 67.693 71.415 66.3634 71.5802 64.4009C71.7313 62.6051 71.7521 60.7303 71.407 58.9735C70.3762 53.7263 66.989 50.0972 62.5605 47.0347ZM80.4862 47.5838C80.3819 49.736 80.0275 51.9134 80.2421 54.0332C80.4658 56.2434 82.3357 57.295 84.7639 57.0699C86.5763 56.9019 88.0841 55.3062 88.1826 53.3414C88.2504 51.9899 88.2429 50.6305 88.1875 49.278C88.0964 47.0579 86.3314 45.5069 84.1086 45.4094C82.4579 45.337 81.5513 46.3413 80.4862 47.5838Z" fill="#FFD2A8"/>
<path d="M118.117 39.6332C118.162 39.7911 118.207 39.9491 118.319 40.2816C118.562 41.103 118.715 41.7567 118.916 42.3955C120.391 47.0827 121.407 51.8559 121.649 56.7768C121.652 57.0019 121.655 57.2269 121.66 57.6842C121.679 59.6364 121.84 61.3694 121.684 63.0735C121.345 66.7935 120.845 70.4988 120.41 74.2101C120.326 74.4278 120.242 74.6454 120.091 75.043C119.534 76.8378 119.116 78.479 118.538 80.0617C117.645 82.5053 116.643 84.909 115.572 87.3302C113.515 87.2037 112.166 88.1265 111.121 89.6879C110.107 91.2041 109.118 92.7557 107.94 94.14C106.245 96.1315 104.704 98.0663 106.177 100.906C104.799 102.223 103.498 103.469 102.115 104.661C100.458 102.363 98.5433 100.279 97.3745 97.8386C94.4896 91.8148 94.4626 85.5033 96.4839 79.1872C98.9963 71.3364 100.829 63.3489 101.233 55.0965C101.491 49.8202 100.974 44.5744 99.9752 39.3894C98.1054 29.6795 94.2493 20.7474 89.2308 12.2809C88.0281 10.2518 86.8165 8.22805 85.7177 6.2041C87.4846 6.8909 89.1428 7.57544 90.8011 8.25999C90.931 8.35695 91.0609 8.45392 91.3309 8.64652C94.5578 10.9473 97.6447 13.1524 100.708 15.4562C99.3515 17.6324 99.5964 19.5646 101.179 21.4076C101.585 21.8808 101.908 22.431 102.233 22.9677C106.839 30.5708 108.7 38.954 109.088 47.7095C109.355 53.7289 108.626 59.6977 107.085 65.5012C105.923 69.8813 104.292 74.1397 102.809 78.4313C101.956 80.9006 102.727 83.1805 104.843 84.0676C107.024 84.9819 109.395 83.9364 110.373 81.5165C111.459 78.8284 112.567 76.1382 113.443 73.3782C115.376 67.284 116.824 61.0643 116.975 54.6437C117.073 50.4576 116.929 46.2603 116.739 42.075C116.639 39.8728 116.207 37.6857 116.01 35.5352C116.769 36.9301 117.443 38.2817 118.117 39.6332Z" fill="#FFD2A8"/>
<path d="M85.6091 6.20297C86.8166 8.22917 88.0281 10.253 89.2308 12.282C94.2493 20.7485 98.1054 29.6806 99.9753 39.3905C100.974 44.5755 101.491 49.8213 101.233 55.0976C100.829 63.35 98.9964 71.3376 96.4839 79.1883C94.4626 85.5045 94.4896 91.8159 97.3745 97.8397C98.5433 100.28 100.458 102.364 102.119 104.78C102.773 106.432 102.206 107.756 101.629 109.078C101.502 109.197 101.376 109.316 101.121 109.549C99.1954 110.882 97.3421 110.561 95.4749 109.869C94.8022 108.942 94.1377 108.009 93.4558 107.089C86.6706 97.9353 85.4243 87.8534 88.5658 77.1066C90.3827 70.891 92.1602 64.6698 92.803 58.2073C93.5756 50.4395 92.7516 42.8023 90.5816 35.3038C87.9595 26.2429 83.5183 18.0796 78.3164 10.2848C76.8118 8.0302 77.2231 5.70034 79.5546 3.99691C81.5147 3.43616 83.1779 3.54111 84.6091 4.85355C84.6898 4.99593 84.7705 5.1383 84.9371 5.41172C85.2184 5.76282 85.4137 5.98289 85.6091 6.20297Z" fill="#FFAC67"/>
<path d="M23.9605 15.3631C25.1545 17.3977 24.8641 19.2951 23.8518 21.3939C20.4851 28.3745 18.5372 35.7625 17.8505 43.4993C17.3041 49.6555 17.5431 55.7347 18.9079 61.7775C20.5785 69.1739 23.8146 75.8277 28.5204 81.717C30.8647 84.651 33.613 87.2621 36.1766 90.0209C37.4422 91.3828 37.6801 93.0743 36.8425 94.7093C36.1191 96.1214 34.4404 97.1651 32.8855 96.8265C31.8499 96.6009 30.7485 96.081 29.9682 95.3718C22.218 88.3273 16.2009 80.0263 12.8744 70.0523C11.4038 65.6431 10.4152 61.0006 9.82796 56.3851C8.72681 47.7298 9.60051 39.1368 11.7682 30.6833C11.8033 30.5465 11.7781 30.3943 11.7924 30.028C12.5964 27.4711 13.3891 25.1356 14.1818 22.8C14.2583 22.6582 14.3348 22.5164 14.4862 22.218C15.3252 20.3588 16.0935 18.6582 16.8522 16.9533C17.6714 15.1125 19.0633 14.121 21.0943 14.0632C21.3234 14.1309 21.5525 14.1985 21.9664 14.3202C22.7543 14.7039 23.3574 15.0335 23.9605 15.3631Z" fill="#FFAC67"/>
<path d="M115.924 35.4915C116.207 37.6854 116.639 39.8724 116.739 42.0746C116.929 46.2599 117.073 50.4572 116.975 54.6434C116.824 61.0639 115.376 67.2836 113.443 73.3779C112.567 76.1378 111.459 78.828 110.373 81.5162C109.395 83.936 107.024 84.9815 104.843 84.0672C102.727 83.1801 101.956 80.9002 102.809 78.4309C104.292 74.1393 105.923 69.8809 107.085 65.5009C108.626 59.6974 109.355 53.7285 109.088 47.7092C108.7 38.9536 106.839 30.5704 102.233 22.9674C101.908 22.4307 101.585 21.8804 101.179 21.4072C99.5964 19.5643 99.3515 17.632 100.807 15.4133C103.195 13.8446 104.791 13.7215 106.322 14.9706C106.938 15.4732 107.415 16.1452 107.956 16.7401C108.155 17.0266 108.354 17.3131 108.651 17.7359C109.613 19.3352 110.477 20.7981 111.342 22.261C111.385 22.4041 111.428 22.5473 111.543 22.8587C113.051 27.1817 114.488 31.3366 115.924 35.4915Z" fill="#FFAC68"/>
<path d="M8.35642 85.2776C12.1115 83.9024 13.7549 84.6986 15.4582 88.495C19.035 96.4672 24.8508 102.444 32.2385 106.954C35.126 108.716 35.8059 110.077 34.9273 113.286C32.4776 115.678 30.9426 115.893 28.1536 114.136C26.0388 112.804 24.0227 111.315 21.9627 109.896C21.6451 109.641 21.3275 109.385 20.8841 109.007C17.8521 105.669 14.7954 102.575 12.0941 99.1965C10.3979 97.0752 9.23525 94.5273 7.83321 92.1708C7.81289 92.0492 7.79256 91.9276 7.70146 91.6185C6.61205 89.2313 6.76223 87.1693 8.35642 85.2776Z" fill="#FFAC68"/>
<path d="M73.9476 119.218C73.8195 119.226 73.6913 119.233 73.3448 119.244C72.0572 119.351 70.9879 119.453 69.9054 119.434C69.4547 116.951 68.9502 114.6 68.5983 112.226C68.2328 109.762 68.3447 107.294 69.4796 105.018C70.8604 102.25 74.5999 101.675 76.747 103.84C78.9791 106.09 79.8511 108.994 80.6578 111.943C81.0995 113.557 81.668 115.136 82.0701 116.782C79.2899 117.628 76.6188 118.423 73.9476 119.218Z" fill="#FFD2A8"/>
<path d="M118.972 92.1292C117.717 95.5231 115.524 98.183 113.183 100.752C112.067 101.976 110.753 102.594 108.964 102.422C108.608 102.346 108.379 102.259 107.978 102.101C107.288 101.631 106.771 101.232 106.254 100.834C104.704 98.0666 106.245 96.1317 107.94 94.1403C109.118 92.7559 110.107 91.2043 111.121 89.6882C112.166 88.1267 113.515 87.2039 115.662 87.3904C117.912 88.1013 118.852 89.5759 118.993 91.6462C118.983 91.7749 118.974 91.9037 118.972 92.1292Z" fill="#FFAC68"/>
<path d="M48.3731 118.454C45.2486 120.356 43.0825 119.709 41.4823 116.419C41.0954 113.784 42.9231 112.131 43.9999 110.183C46.2295 106.15 48.3407 102.072 49.1014 97.4648C49.2964 96.2835 49.3446 95.0465 49.226 93.8585C49.1685 93.2824 48.6646 92.6568 48.2002 92.231C45.6387 89.8824 42.8728 87.7379 40.4607 85.2486C32.4208 76.951 26.8044 67.256 25.3166 55.6861C23.7861 43.784 25.4018 32.2471 32.0599 21.984C36.5412 15.0763 43.0698 11.1564 51.52 10.8465C58.0878 10.6057 64.3157 11.8369 69.4902 16.008C75.464 20.8233 78.8269 27.2252 79.5253 34.9557C79.7547 37.4949 79.4058 39.8484 77.9261 41.978C76.5749 43.9227 74.1404 44.9577 71.8548 44.2871C70.2925 43.8288 68.8224 43.0542 67.3139 42.4145C64.0711 41.0393 60.8842 39.5088 57.5732 38.3252C54.3158 37.1608 51.1323 38.6433 49.1822 41.5093C46.0287 46.144 46.4281 50.9405 48.3724 55.7656C51.1289 62.6062 55.586 68.2116 61.5268 72.552C64.0916 74.426 66.8325 76.1728 70.2065 76.248C72.9879 76.31 75.6274 73.7461 75.7031 70.8489C75.733 69.7034 75.6044 68.5316 75.377 67.4064C74.9445 65.2659 75.993 63.2198 77.9914 62.5522C80.232 61.8036 82.2169 62.6442 83.076 64.8606C85.0425 69.9343 84.1877 74.6596 80.983 78.949C76.016 85.597 68.9086 85.5692 62.2372 82.3918C55.6083 79.2346 50.3468 74.3614 46.0796 68.4088C42.6614 63.6406 40.067 58.5104 39.0184 52.667C37.8806 46.3265 39.4754 40.7466 43.4218 35.7269C46.7188 31.5331 51.0145 29.5068 56.3 29.807C59.7614 30.0035 63.0025 31.2021 66.1279 32.6703C67.7712 33.4423 69.3971 34.2513 71.0309 35.0436C71.167 34.9588 71.3031 34.8741 71.4392 34.7894C71.0509 33.4402 70.7714 32.0477 70.2544 30.7499C68.472 26.2755 65.9821 22.3172 61.2314 20.5195C56.1034 18.5791 50.876 18.1313 45.7072 20.4511C42.3706 21.9487 39.9641 24.5006 38.151 27.614C35.1768 32.7213 33.8566 38.3089 33.2511 44.1484C32.6432 50.0114 33.0949 55.7279 34.9735 61.3076C37.0224 67.3932 40.3284 72.7354 44.5699 77.554C47.7532 81.1706 51.3594 84.2493 55.2384 87.0865C57.0697 88.426 57.1853 90.7942 57.3866 92.8809C57.883 98.0253 56.6932 102.928 54.4875 107.507C52.6909 111.238 50.4516 114.756 48.3731 118.454Z" fill="#FFAC67"/>
<path d="M69.9054 119.433C69.2032 120.495 68.6706 121.721 67.7361 122.317C65.5057 123.739 63.3706 122.896 61.8045 120.213C60.6906 116.29 60.0318 112.383 60.344 108.397C60.7283 103.49 62.2181 99.0193 66.7659 96.3942C73.2602 92.6455 79.6 93.6757 84.1521 99.8609C86.9263 103.63 88.3352 107.993 89.0938 112.578C89.1326 112.813 89.2328 113.038 89.3662 113.37C89.3293 113.636 89.1761 113.789 89.1398 113.966C88.3428 117.843 85.8929 118.888 82.2736 116.787C81.6679 115.136 81.0995 113.556 80.6578 111.942C79.8511 108.994 78.9791 106.09 76.747 103.839C74.5999 101.674 70.8604 102.249 69.4796 105.018C68.3447 107.293 68.2328 109.761 68.5983 112.226C68.9502 114.6 69.4547 116.951 69.9054 119.433Z" fill="#FFAC67"/>
<path d="M62.6618 47.0813C66.989 50.0975 70.3762 53.7266 71.407 58.9738C71.7521 60.7306 71.7313 62.6054 71.5802 64.4012C71.415 66.3636 69.3483 67.6933 67.1893 67.5113C65.2587 67.3485 63.5132 65.4016 63.569 63.1146C63.6221 60.9367 63.2228 58.9636 61.8041 57.309C60.8321 56.1754 59.7171 55.1629 58.6493 54.1133C56.7755 52.2717 56.4032 50.7906 57.3849 48.9801C58.4176 47.0753 60.1225 46.4346 62.6618 47.0813Z" fill="#FFAC67"/>
<path d="M80.5482 47.4902C81.5513 46.3417 82.4579 45.3374 84.1086 45.4098C86.3314 45.5073 88.0965 47.0584 88.1875 49.2785C88.2429 50.631 88.2504 51.9904 88.1826 53.3418C88.0841 55.3067 86.5763 56.9024 84.7639 57.0703C82.3357 57.2954 80.4658 56.2439 80.2421 54.0337C80.0275 51.9138 80.3819 49.7364 80.5482 47.4902Z" fill="#FFAC67"/>
<path d="M3.12423 55.2438C3.06726 54.9521 3.08195 54.5872 3.17859 54.1921C3.239 54.4982 3.21745 54.8344 3.12423 55.2438Z" fill="#FBF5F0"/>
<path d="M3.41418 52.6508C3.37074 52.5243 3.39025 52.3435 3.47666 52.1434C3.52141 52.2817 3.49928 52.439 3.41418 52.6508Z" fill="#FBF5F0"/>
</g>
<defs>
<clipPath id="clip0_1_120">
<rect width="573" height="122" fill="white"/>
</clipPath>
</defs>
</svg>
